<svg width="505" height="295" viewBox="0 0 505 295" fill="none" xmlns="http://www.w3.org/2000/svg">
<path d="M483.604 0.833458L21.3544 1.16662C10.0547 1.17476 0.901042 10.3416 0.909186 21.6414L1.09104 273.951C1.09918 285.251 10.266 294.405 21.5658 294.397L483.816 294.063C495.115 294.055 504.269 284.888 504.261 273.589L504.079 21.2787C504.071 9.97896 494.904 0.825314 483.604 0.833458Z" fill="#F2F2F2"/>
<path d="M504.112 66.5087L0.941785 66.8713L0.909186 21.6414C0.905275 16.215 3.05712 11.0094 6.89135 7.16964C10.7256 3.32988 15.9281 1.17053 21.3544 1.16662L483.594 0.833467C486.282 0.830217 488.944 1.35654 491.428 2.38238C493.912 3.40821 496.17 4.91345 498.072 6.81209C499.975 8.71074 501.484 10.9656 502.515 13.4478C503.546 15.9301 504.077 18.591 504.079 21.2787L504.112 66.5087Z" fill="#E6E6E6"/>
<path d="M439.762 11.3751L99.292 11.6205C97.3756 11.6218 95.8231 13.1765 95.8245 15.093L95.83 22.693C95.8314 24.6094 97.386 26.1618 99.3025 26.1604L439.772 25.9151C441.689 25.9137 443.241 24.359 443.24 22.4426L443.234 14.8426C443.233 12.9261 441.678 11.3737 439.762 11.3751Z" fill="white"/>
<path d="M28.7897 22.3713C30.7724 22.3698 32.3786 20.7614 32.3771 18.7787C32.3757 16.796 30.7672 15.1898 28.7845 15.1913C26.8018 15.1927 25.1957 16.8011 25.1971 18.7838C25.1986 20.7665 26.807 22.3727 28.7897 22.3713Z" fill="#FBB03B"/>
<path d="M16.8097 22.3799C18.7924 22.3785 20.3986 20.77 20.3971 18.7873C20.3957 16.8046 18.7872 15.1985 16.8045 15.1999C14.8218 15.2013 13.2157 16.8098 13.2171 18.7925C13.2186 20.7752 14.827 22.3813 16.8097 22.3799Z" fill="#ED1C24"/>
<path d="M40.7697 22.3626C42.7524 22.3612 44.3585 20.7527 44.3571 18.77C44.3557 16.7873 42.7472 15.1812 40.7645 15.1826C38.7818 15.1841 37.1757 16.7925 37.1771 18.7752C37.1785 20.7579 38.787 22.364 40.7697 22.3626Z" fill="#8CC63F"/>
<path d="M60.8334 13.6282C60.9042 13.6971 60.9605 13.7794 60.999 13.8704C61.0374 13.9614 61.0573 14.0592 61.0574 14.158C61.0574 14.2568 61.0377 14.3546 60.9994 14.4457C60.9611 14.5367 60.9049 14.6192 60.8342 14.6882L56.7671 18.7611L60.84 22.8282C60.982 22.9686 61.0624 23.1597 61.0635 23.3595C61.0646 23.5592 60.9863 23.7512 60.8458 23.8931C60.7054 24.0351 60.5142 24.1155 60.3145 24.1166C60.1148 24.1177 59.9228 24.0394 59.7808 23.8989L55.1775 19.2922C55.0369 19.1517 54.9579 18.9611 54.9578 18.7624C54.9576 18.5636 55.0364 18.373 55.1767 18.2322L59.7734 13.6289C59.9139 13.4884 60.1045 13.4093 60.3033 13.4092C60.502 13.4091 60.6927 13.4878 60.8334 13.6282Z" fill="#B3B3B3"/>
<path d="M68.7134 13.6225C68.5731 13.7632 68.4943 13.9539 68.4945 14.1527C68.4946 14.3514 68.5736 14.542 68.7142 14.6825L72.7971 18.7496L68.7201 22.8225C68.5996 22.9684 68.5379 23.1539 68.547 23.3428C68.5561 23.5317 68.6353 23.7105 68.7691 23.8441C68.903 23.9778 69.0818 24.0567 69.2708 24.0655C69.4597 24.0743 69.6451 24.0123 69.7908 23.8917L74.3875 19.2784C74.5279 19.1377 74.6066 18.947 74.6065 18.7482C74.6063 18.5495 74.5273 18.3589 74.3867 18.2184L69.7834 13.6217C69.6398 13.4831 69.4479 13.4057 69.2483 13.4059C69.0486 13.406 68.8569 13.4837 68.7134 13.6225Z" fill="#B3B3B3"/>
<path d="M451.892 38.7763L428.332 38.7933L428.352 66.5633L451.912 66.5463L451.892 38.7763Z" fill="#CCCCCC"/>
<path d="M440.388 46.9546L440.395 57.2946" stroke="#999999" stroke-width="1.41" stroke-miterlimit="10"/>
<path d="M445.561 52.1209L435.231 52.1283" stroke="#999999" stroke-width="1.41" stroke-miterlimit="10"/>
</svg>
