<?xml version="1.0" encoding="UTF-8"?>
<svg width="609" height="588" viewBox="0 0 609 588" fill="none" xmlns="http://www.w3.org/2000/svg">
<path d="M7.78392 488.371C5.03946 463.152 7.72932 430.055 23.8941 409.571C49.479 377.15 85.2263 372.335 123.881 368.095C179.282 362.019 233.887 343.407 274.976 304.511C323.061 258.992 343.123 192.963 383.537 141.573C416.153 100.1 461.294 78.2624 513.785 78.5145C534.369 78.6134 555.321 81.0618 575.33 85.993C593.581 90.4909 610.15 98.945 627.511 105.854C636.842 109.567 646.171 113.419 655.4 117.379C657.32 118.202 662.337 119.658 663.532 121.814C664.866 124.219 664.085 125.16 662.624 127.154" stroke="#E5E5E5" stroke-width="2" stroke-linecap="round" stroke-linejoin="round"/>
</svg>
