<svg width="289" height="56" viewBox="0 0 289 56" fill="none" xmlns="http://www.w3.org/2000/svg">
<path d="M100.752 38.1187L99.9586 39.2607C98.3872 41.488 96.2152 43.2713 93.6705 44.4233C91.0967 45.619 88.1327 46.222 84.8607 46.222C79.8303 46.222 75.5804 44.667 72.2282 41.5942C68.876 38.5214 67.1501 34.6928 67.1501 30.286C67.1402 27.3602 67.9589 24.4859 69.52 21.966C71.0811 19.446 73.3268 17.3736 76.0206 15.967C78.7374 14.5462 81.8229 13.8358 85.1881 13.8358C87.2628 13.8343 89.3247 14.1437 91.2984 14.7527C93.1208 15.2906 94.8379 16.1103 96.3809 17.1791C97.8449 18.2485 99.0738 19.5816 99.9976 21.1027L100.7 22.2406L95.3856 25.4001L94.605 24.4027C92.2524 21.3939 89.1171 19.936 85.0255 19.936C81.7535 19.936 79.1277 20.8983 76.992 22.8787C75.9706 23.7884 75.1618 24.8928 74.6183 26.1199C74.0747 27.3471 73.8085 28.6694 73.8371 30.001C73.8379 31.8145 74.342 33.5956 75.2985 35.1637C76.2244 36.7378 77.5994 38.0301 79.2643 38.8911C81.0359 39.7904 83.0182 40.2466 85.0255 40.2168C88.9913 40.2168 92.1332 38.7713 94.6311 35.779L95.4333 34.8167L100.752 38.1187Z" fill="#7C2AE8"/>
<path d="M139.27 30.1312C139.27 25.8482 137.739 22.094 134.727 18.9799C131.451 15.5643 127.279 13.8358 122.312 13.8358C117.344 13.8358 113.185 15.5746 109.889 19.0212C106.977 22.0509 105.386 26.0237 105.44 30.1312C105.44 34.3996 107.021 38.1848 110.139 41.3753C113.257 44.5658 117.377 46.2241 122.312 46.2241H122.435C126.633 45.8875 129.966 44.6464 132.392 42.5276V46.3583H138.988L139.235 45.2989C139.285 45.0677 139.322 44.9169 139.27 30.1312ZM113.732 35.397C112.729 33.8244 112.193 32.0225 112.179 30.1828C112.179 27.3599 113.161 25.0202 115.189 23.0294C117.216 21.0387 119.525 20.0909 122.312 20.0909C125.098 20.0909 127.388 21.0511 129.343 23.0171C130.06 23.7301 130.664 24.5392 131.134 25.4187C131.747 27.4065 131.995 29.4797 131.869 31.5478C129.209 38.1807 124.963 40.8178 118.89 39.6015C116.459 38.4244 114.725 37.014 113.732 35.397Z" fill="#7C2AE8"/>
<path d="M161.293 5.9886L160.838 7.06036C160.539 7.76041 160.144 8.75783 159.665 10.0258L159.108 11.5023L157.655 10.7568C156.178 9.99893 154.836 9.93078 153.451 10.5503C152.785 10.9055 151.623 12.1197 151.091 16.2519V17.652H158.125V23.4754H151.063V46.2571H144.381V15.5436C144.437 13.0077 144.999 10.8972 146.037 9.2266C147.705 5.9886 150.393 4.2519 154.034 4.09289C155.985 3.70259 158.073 4.13832 160.252 5.3918L161.293 5.9886Z" fill="#7C2AE8"/>
<path d="M191.532 34.0981C190.448 35.8224 189.442 37.0635 188.557 37.7904C187.607 38.5528 186.521 39.1472 185.351 39.5457C184.099 39.992 182.773 40.22 181.437 40.2189C178.692 40.2189 176.45 39.3227 174.587 37.4786C173 35.9092 172.074 33.999 171.783 31.6634H198.345V30.3067C198.326 26.1642 197.131 22.6392 194.793 19.8327C191.485 15.8493 187.037 13.8358 181.573 13.8358C176.211 13.8358 171.872 15.8162 168.685 19.7171C166.211 22.6768 164.881 26.3567 164.919 30.1394C164.919 34.2509 166.408 37.9866 169.346 41.2411C172.339 44.5452 176.517 46.2323 181.762 46.2323C183.936 46.2604 186.097 45.9105 188.139 45.1998C190.033 44.5144 191.774 43.4935 193.269 42.191C194.787 40.8797 196.112 39.1451 197.215 37.0284L197.829 35.8493L192.226 33.0036L191.532 34.0981ZM190.825 25.8379H172.651C173.288 24.3469 174.093 23.174 175.051 22.348C176.894 20.7765 179.032 20.0124 181.599 20.0124C183.141 20.0096 184.664 20.3319 186.06 20.9561C187.361 21.5073 188.512 22.3377 189.42 23.3826C190.02 24.127 190.494 24.9562 190.825 25.84V25.8379Z" fill="#7C2AE8"/>
<path d="M220.685 1.30508L210.292 10.065H204.397L211.956 1.30508H220.685Z" fill="#7C2AE8"/>
<path d="M210.917 14.5503H204.234V45.5302H210.917V14.5503Z" fill="#7C2AE8"/>
<path d="M248.802 30.3108V46.1993H242.171V31.3701C242.171 27.461 241.954 25.8296 241.783 25.1481C241.408 23.6055 240.742 22.5813 239.736 21.9927C238.637 21.3485 236.891 21.0201 234.556 21.0201C232.639 20.9891 230.765 21.5667 229.23 22.6618C227.802 23.6675 227.184 24.952 227.279 26.7073V26.8993L227.236 27.0852C226.919 28.3882 226.756 30.8787 226.756 34.4863V46.1993H220.082V34.1373L220.03 31.1327C219.963 29.8051 220.032 28.4745 220.234 27.1595C220.668 23.6241 221.626 21.0697 223.153 19.3371L223.2 19.2834C224.453 17.9709 225.912 16.8508 227.524 15.9628L227.671 15.9009C230.083 14.9179 232.86 14.4553 235.911 14.5049C237.12 14.5024 238.324 14.6545 239.491 14.9571C240.659 15.2582 241.777 15.7112 242.815 16.3035C244.891 17.4304 246.526 19.17 247.472 21.2597C248.366 23.2607 248.802 26.2261 248.802 30.3108Z" fill="#7C2AE8"/>
<path d="M288.715 30.1311C288.715 25.8482 287.185 22.0939 284.175 18.9798C280.897 15.558 276.718 13.8172 271.762 13.8172C266.805 13.8172 262.624 15.5642 259.339 19.0108C256.424 22.0391 254.831 26.0125 254.886 30.1208C254.886 34.3892 256.469 38.1745 259.582 41.365C262.696 44.5555 266.827 46.2137 271.762 46.2137H271.879C276.076 45.8771 279.409 44.636 281.842 42.5173V46.3479H288.434L288.683 45.2885C288.735 45.0676 288.768 44.9168 288.715 30.1311ZM263.175 35.397C262.176 33.823 261.64 32.0219 261.625 30.1827C261.625 27.3598 262.611 25.0201 264.637 23.0294C266.662 21.0387 268.973 20.0908 271.762 20.0908C274.55 20.0908 276.835 21.0511 278.789 23.017C279.506 23.7311 280.11 24.54 280.584 25.4186C281.194 27.4068 281.441 29.4799 281.315 31.5477C278.655 38.1807 274.409 40.8177 268.34 39.6014C265.907 38.4243 264.17 37.0139 263.175 35.397Z" fill="#7C2AE8"/>
<path d="M29.4 56C45.6371 56 58.7999 43.464 58.7999 28C58.7999 12.536 45.6371 0 29.4 0C13.1628 0 0 12.536 0 28C0 43.464 13.1628 56 29.4 56Z" fill="#FF4300"/>
<path d="M18.8642 24.2499L11.7977 18.3149C11.7905 18.3057 11.7866 18.2944 11.7866 18.2829C11.7866 18.2714 11.7905 18.2602 11.7977 18.2509C13.885 14.802 17.029 12.0429 20.8087 10.3431C24.5883 8.64336 28.823 8.0841 32.9456 8.74024C37.0683 9.39639 40.882 11.2366 43.8759 14.0144C46.8698 16.7923 48.901 20.3751 49.6974 24.2829C49.6987 24.2902 49.6983 24.2976 49.6963 24.3047C49.6942 24.3118 49.6906 24.3184 49.6857 24.3241C49.6808 24.3298 49.6746 24.3344 49.6677 24.3376C49.6607 24.3408 49.6531 24.3426 49.6454 24.3428H40.2502C40.2396 24.3425 40.2294 24.3392 40.2209 24.3333C40.2124 24.3274 40.206 24.3192 40.2025 24.3098C39.4067 22.2405 37.9649 20.4528 36.0707 19.187C34.1766 17.9213 31.9211 17.2381 29.6072 17.2293C27.2934 17.2206 25.0321 17.8866 23.1275 19.138C21.2229 20.3894 19.7662 22.166 18.9531 24.2292C18.9507 24.2378 18.9459 24.2457 18.9393 24.252C18.9326 24.2582 18.9242 24.2626 18.9151 24.2647C18.906 24.2669 18.8965 24.2666 18.8875 24.264C18.8786 24.2614 18.8705 24.2565 18.8642 24.2499Z" fill="white"/>
<path d="M49.7451 31.4321C48.8839 36.026 46.3239 40.1744 42.5286 43.1261C38.7333 46.0778 33.9537 47.6375 29.0552 47.5229C17.9969 47.271 9.03962 38.5131 9.0548 27.9731C9.05547 26.5252 9.22492 25.0818 9.56001 23.6695C9.56232 23.6612 9.5668 23.6535 9.57303 23.6472C9.57926 23.6409 9.58705 23.6362 9.59568 23.6336C9.60432 23.6309 9.61352 23.6303 9.62244 23.6319C9.63136 23.6335 9.63972 23.6372 9.64674 23.6427L18.7709 31.3102C18.7772 31.3158 18.7818 31.323 18.784 31.3309C19.5212 33.4911 20.9556 35.3747 22.8826 36.7132C24.8097 38.0517 27.1311 38.7768 29.5162 38.7853C31.9013 38.7937 34.2283 38.0851 36.1658 36.7603C38.1033 35.4356 39.5523 33.5623 40.3065 31.4073C40.3094 31.3975 40.3157 31.3889 40.3243 31.3829C40.333 31.3769 40.3435 31.3739 40.3542 31.3742H49.6931C49.7007 31.3741 49.7083 31.3756 49.7152 31.3786C49.7222 31.3816 49.7283 31.386 49.7333 31.3915C49.7383 31.3971 49.7419 31.4035 49.7439 31.4106C49.746 31.4176 49.7464 31.4249 49.7451 31.4321Z" fill="white"/>
</svg>
