<svg width="502" height="622" viewBox="0 0 502 622" fill="none" xmlns="http://www.w3.org/2000/svg">
<path d="M167.255 337.814V528.976C167.255 553.647 177.034 577.308 194.44 594.754C211.847 612.199 235.455 622 260.072 622H335.74C358.627 621.994 380.704 613.514 397.732 598.188C414.76 582.861 425.538 561.77 427.996 538.965C455.13 537.605 501.729 520.128 501.982 461.279V460.807C501.729 402.338 455.691 384.662 428.539 383.157V337.832L167.255 337.814ZM428.557 511.535V410.533C440.604 411.73 474.649 418.8 474.775 461.043C474.902 503.286 440.604 510.356 428.557 511.535Z" fill="url(#paint0_linear)"/>
<path opacity="0.6" d="M390.732 146.236C267.145 68.2409 335.469 0 335.469 0H305.35C287.423 28.8628 251.081 97.9014 331.507 170.113C218.376 107.728 262.55 25.1824 274.435 0H39.2722C37.1738 26.9954 37.825 70.7065 55.8783 113.094C26.3201 83.3975 20.423 27.7387 19.3738 0H0C0 181.299 76.5002 193.319 160.327 229.597C234.493 261.687 171.759 347.731 171.759 347.731H393.572C393.572 347.731 514.228 224.23 390.732 146.236Z" fill="#E2E4EC"/>
<path d="M231.393 467L173.163 535.694L140.855 504.547L123.092 522.786L173.163 572.625L251.165 483.825L231.393 467Z" fill="#7C2AE8"/>
<defs>
<linearGradient id="paint0_linear" x1="208" y1="359" x2="387" y2="560.5" gradientUnits="userSpaceOnUse">
<stop offset="0.0525663" stop-color="#E2E4EC"/>
<stop offset="1" stop-color="#CBCFDF"/>
</linearGradient>
</defs>
</svg>
