<svg width="292" height="432" viewBox="0 0 292 432" fill="none" xmlns="http://www.w3.org/2000/svg">
<path opacity="0.42" d="M280.782 0H175.218C172.336 0 170 2.65821 170 5.93727V136.834C170 140.113 172.336 142.771 175.218 142.771H280.782C283.664 142.771 286 140.113 286 136.834V5.93727C286 2.65821 283.664 0 280.782 0Z" fill="white"/>
<path opacity="0.46" d="M273.824 8.66843H181.01C178.244 8.66843 176.001 11.2203 176.001 14.3682V51.9511C176.001 55.099 178.244 57.6509 181.01 57.6509H273.824C276.591 57.6509 278.834 55.099 278.834 51.9511V14.3682C278.834 11.2203 276.591 8.66843 273.824 8.66843Z" fill="white"/>
<path opacity="0.46" d="M182.715 17.3566H273.285" stroke="white" stroke-miterlimit="10" stroke-linecap="round"/>
<path opacity="0.46" d="M182.715 23.947H273.285" stroke="white" stroke-miterlimit="10" stroke-linecap="round"/>
<path opacity="0.46" d="M182.715 30.5571H273.285" stroke="white" stroke-miterlimit="10" stroke-linecap="round"/>
<path opacity="0.46" d="M182.715 37.1673H273.285" stroke="white" stroke-miterlimit="10" stroke-linecap="round"/>
<path opacity="0.46" d="M182.715 43.7577H273.285" stroke="white" stroke-miterlimit="10" stroke-linecap="round"/>
<path opacity="0.46" d="M182.715 50.3678H273.285" stroke="white" stroke-miterlimit="10" stroke-linecap="round"/>
<path opacity="0.42" d="M101.107 52.7212H4.31834C1.93338 52.7212 0 54.6546 0 57.0396V138.037C0 140.422 1.93338 142.355 4.31834 142.355H101.107C103.492 142.355 105.425 140.422 105.425 138.037V57.0396C105.425 54.6546 103.492 52.7212 101.107 52.7212Z" fill="white"/>
<path d="M11.8034 128.882C12.2929 128.594 31.6678 106.139 31.6678 106.139H42.0318L51.6329 94.9977H64.2568L93.8518 64.4095" stroke="#013E53" stroke-miterlimit="10" stroke-linecap="round"/>
<path d="M17.0862 112.329L28.6018 99.8918H56.1959V84.8353H89.7782" stroke="#E54E40" stroke-miterlimit="10" stroke-linecap="round"/>
<path d="M9.11169 65.8346H13.1565" stroke="#FFFEFE" stroke-width="0.88" stroke-linecap="round" stroke-linejoin="round"/>
<path d="M9.11169 73.5788H14.6823" stroke="#FFFEFE" stroke-width="0.88" stroke-linecap="round" stroke-linejoin="round"/>
<path d="M9.11169 81.323H13.1565" stroke="#FFFEFE" stroke-width="0.88" stroke-linecap="round" stroke-linejoin="round"/>
<path d="M9.11169 89.0816H14.6823" stroke="#FFFEFE" stroke-width="0.88" stroke-linecap="round" stroke-linejoin="round"/>
<path d="M9.11169 96.8258H13.1565" stroke="#FFFEFE" stroke-width="0.88" stroke-linecap="round" stroke-linejoin="round"/>
<path d="M9.11169 104.57H14.6823" stroke="#FFFEFE" stroke-width="0.88" stroke-linecap="round" stroke-linejoin="round"/>
<path d="M9.11169 112.329H13.1565" stroke="#FFFEFE" stroke-width="0.88" stroke-linecap="round" stroke-linejoin="round"/>
<path d="M9.11169 120.073H14.6823" stroke="#FFFEFE" stroke-width="0.88" stroke-linecap="round" stroke-linejoin="round"/>
<path d="M8.93895 61.0556V132.15H83.056" stroke="#FFFEFE" stroke-linecap="round" stroke-linejoin="round"/>
<path d="M88.2524 87.4982L91.304 84.8353L88.2524 82.1579" stroke="#E54E40" stroke-miterlimit="10" stroke-linecap="round"/>
<path d="M87.3455 65.6474L94.4852 63.7474L93.8518 71.4052" stroke="#013E53" stroke-miterlimit="10" stroke-linecap="round"/>
<path d="M167.048 83.5398L99.5952 52.7212L99.2641 142.687L167.048 101.245V83.5398Z" fill="url(#paint0_linear)"/>
<path d="M173.151 97.3152C175.197 99.9942 176.452 103.193 176.773 106.549C177.093 109.905 176.467 113.284 174.965 116.302C171.798 122.419 165.191 126.478 163.06 133.028C160.757 140.124 164.759 148.128 170.862 152.403C176.965 156.678 184.71 157.916 192.166 158.161C195.793 158.29 199.665 158.161 202.703 156.16C207.021 153.281 208.259 147.768 208.863 142.715C209.981 135.05 209.689 127.244 208 119.684C206.267 112.055 202.018 105.231 195.937 100.309C189.791 95.6023 181.356 93.6303 174.015 96.1205" fill="#013E53"/>
<path d="M285.514 133.071C283.844 154.562 260.943 164.609 260.943 164.609L211.195 146.674L199.291 133.1L200.529 125.787L205.754 94.6666L205.999 93.2272H223.114C223.114 93.2272 223.114 93.3424 223.114 93.5295C223.154 93.9357 223.217 94.3393 223.301 94.7386C224.05 98.3372 227.619 107.017 245.512 104.815C267.91 101.936 287.169 111.609 285.514 133.071Z" fill="#013E53"/>
<path d="M96.2701 109.076V108.86C96.2981 105.842 95.281 102.907 93.3912 100.554C87.4607 93.3568 78.7089 92.234 70.3601 92.4355C65.8258 92.5363 58.8445 92.7954 53.2739 92.637C53.1623 92.6144 53.0474 92.6139 52.9357 92.6356C52.824 92.6573 52.7176 92.7008 52.6227 92.7637C52.5278 92.8265 52.4462 92.9074 52.3826 93.0017C52.319 93.0961 52.2745 93.2021 52.2519 93.3136C52.2292 93.4251 52.2287 93.54 52.2504 93.6517C52.2721 93.7635 52.3156 93.8698 52.3785 93.9647C52.4413 94.0596 52.5222 94.1412 52.6165 94.2048C52.7109 94.2685 52.8169 94.3129 52.9284 94.3356C57.9754 96.2394 63.3993 96.9297 68.7623 96.3508C68.9062 100.511 69.2805 104.512 71.8859 107.766C74.4913 111.019 79.0831 112.329 83.128 113.523C87.1728 114.718 91.6783 116.287 93.8374 119.972L92.9162 119.137" fill="white"/>
<path d="M196.902 105.203C200.328 115.524 203.71 126.666 207.136 136.986C201.969 138.742 196.7 140.599 191.533 142.37C191.317 132.772 188.495 123.413 183.371 115.294C188.426 112.506 193.012 108.941 196.959 104.728" fill="#FFFEFE"/>
<path d="M283.096 164.753C273.02 150.92 256.797 142.759 240.474 137.49C222.783 131.732 202.688 129.055 186.12 137.49C179.528 140.858 173.827 145.853 167.048 148.833C152.768 155.08 135.509 151.165 122.871 142.01C110.233 132.855 102.388 119.324 95.6943 105.232L88.7706 115.467C88.3819 124.765 89.3896 128.033 91.0305 137.217C93.4056 150.546 97.4217 164.293 106.965 173.908C114.767 181.782 125.592 186.086 136.531 187.928C147.471 189.771 158.641 189.281 169.725 188.821C169.725 188.821 162.01 210.974 160.455 231.342H239.912L238.3 226.952C245.267 227.639 252.292 227.46 259.215 226.419C269.018 224.778 278.677 220.359 284.866 212.572C295.561 199.17 293.215 178.586 283.096 164.753ZM234.63 216.948C234.63 216.948 231.751 207.663 220.235 198.796C208.72 189.929 225.993 174.239 225.993 174.239C225.993 174.239 274.387 189.008 234.63 216.948Z" fill="#E54E40"/>
<path d="M160.455 231.342L109.772 420.341H127.045L197.866 285.782C197.866 285.782 221.761 327.828 216.262 420.341H233.723C233.723 420.341 277.093 289.352 239.912 231.342H160.455Z" fill="#039EB0"/>
<path d="M109.772 420.341L90.685 429.899C90.4795 430.005 90.3153 430.176 90.2185 430.386C90.1217 430.596 90.0978 430.833 90.1508 431.058C90.2038 431.283 90.3304 431.484 90.5107 431.628C90.691 431.773 90.9145 431.854 91.1457 431.857H126.671C126.935 431.851 127.196 431.79 127.434 431.676C127.673 431.563 127.885 431.4 128.057 431.199C128.228 430.998 128.355 430.762 128.428 430.508C128.502 430.255 128.522 429.988 128.485 429.726L127.045 420.355L109.772 420.341Z" fill="#013E53"/>
<path d="M216.118 420.341L197.06 429.899C196.855 430.005 196.69 430.176 196.593 430.386C196.497 430.596 196.473 430.833 196.526 431.058C196.579 431.283 196.705 431.484 196.886 431.628C197.066 431.773 197.289 431.854 197.521 431.857H232.974C233.243 431.858 233.509 431.801 233.754 431.689C233.998 431.577 234.216 431.414 234.391 431.21C234.566 431.006 234.695 430.766 234.768 430.508C234.842 430.249 234.858 429.978 234.817 429.712L233.377 420.341H216.118Z" fill="#013E53"/>
<path d="M235.536 218.66L238.3 226.146C238.3 226.146 232.384 233.242 220.94 231.903C209.497 230.565 213.455 216.314 225.417 216.818C225.417 216.818 225.23 215.119 225.978 215.004C226.727 214.889 233.089 214.227 235.536 218.66Z" fill="white"/>
<path d="M188.812 261.873L197.449 285.609" stroke="#013E53" stroke-miterlimit="10" stroke-linecap="round"/>
<path d="M216.924 170.094L226.281 174.412" stroke="white" stroke-linecap="round" stroke-linejoin="round"/>
<path d="M183.371 139.39C183.371 139.39 169.552 152.101 169.495 162.177C169.437 172.253 174.633 174.772 174.015 179.623C173.36 182.999 171.876 186.16 169.696 188.821" stroke="white" stroke-linecap="round" stroke-linejoin="round"/>
<path d="M198.643 66.5687C195.773 65.1733 192.613 64.4794 189.422 64.5443C186.232 64.6092 183.102 65.4309 180.291 66.9418C177.48 68.4527 175.068 70.6096 173.253 73.235C171.439 75.8603 170.274 78.8791 169.855 82.0427C169.192 87.0952 170.689 92.637 174.605 95.8902C179.585 100.021 187.56 99.3449 192.497 95.2136C197.434 91.0824 199.694 84.2451 199.234 77.782C198.975 73.9242 197.881 70.0665 198.428 66.2664L197.679 66.7846" fill="#013E53"/>
<path d="M202.415 83.2951C200.731 76.5441 192.497 72.8879 185.789 74.6584C179.081 76.4289 174.144 82.489 171.841 89.0528C169.538 95.6167 169.437 102.713 169.509 109.666C169.296 112.278 169.825 114.898 171.035 117.223C173.208 120.605 177.786 121.541 181.788 121.181C185.883 120.847 189.845 119.564 193.36 117.435C196.875 115.306 199.846 112.389 202.04 108.914C204.233 105.438 205.588 101.501 205.998 97.4119C206.408 93.323 205.861 89.1947 204.401 85.3535" fill="#FFFEFE"/>
<path d="M238.199 129.933C225.316 133.676 210.922 132.927 200.529 125.787C197.414 123.651 194.72 120.957 192.583 117.842C184.911 106.686 182.925 88.002 185.041 74.6584C186.15 71.8308 188.033 69.3727 190.475 67.5653C192.916 65.758 195.817 64.6743 198.845 64.4383C201.881 64.4079 204.888 65.0237 207.668 66.2447C210.447 67.4658 212.935 69.2641 214.967 71.5204C218.998 76.0871 221.627 81.7197 222.538 87.7429C222.668 88.5058 222.783 89.2543 222.869 90.0316C222.999 91.0824 223.1 92.1332 223.157 93.1696C223.165 93.2702 223.165 93.3713 223.157 93.4719C223.157 93.8606 223.157 94.2636 223.244 94.6811C223.546 100.266 223.416 105.923 224.438 111.436C225.907 119.209 230.426 128.306 238.199 129.933Z" fill="#013E53"/>
<path d="M194.109 92.3348C194.102 94.6841 193.165 96.935 191.504 98.5963C189.842 100.258 187.592 101.194 185.242 101.202H163.564C161.216 101.202 158.965 100.269 157.304 98.6089C155.644 96.9487 154.712 94.697 154.712 92.3492C154.712 90.0013 155.644 87.7496 157.304 86.0894C158.965 84.4292 161.216 83.4966 163.564 83.4966H185.242C187.588 83.5003 189.837 84.4318 191.498 86.0876C193.159 87.7435 194.098 89.9893 194.109 92.3348Z" fill="#039EB0"/>
<path d="M185.948 92.3348C185.948 93.5016 185.717 94.657 185.27 95.7347C184.822 96.8123 184.167 97.7911 183.34 98.6149C182.514 99.4386 181.533 100.091 180.454 100.535C179.375 100.979 178.219 101.206 177.052 101.202H163.521C161.173 101.202 158.921 100.269 157.261 98.6089C155.601 96.9487 154.668 94.697 154.668 92.3492C154.668 90.0013 155.601 87.7496 157.261 86.0894C158.921 84.4292 161.173 83.4966 163.521 83.4966H177.052C178.216 83.4928 179.37 83.7184 180.447 84.1605C181.524 84.6026 182.504 85.2526 183.33 86.0733C184.156 86.894 184.812 87.8694 185.262 88.9437C185.711 90.018 185.944 91.1703 185.948 92.3348Z" fill="#41ABB5"/>
<path d="M160.455 92.3492H180.204" stroke="#E54E40" stroke-width="5.54" stroke-miterlimit="10" stroke-linecap="round"/>
<path d="M223.373 94.6666H192.886V90.0172H222.941C223.071 91.068 223.172 92.1188 223.229 93.1552C223.229 93.1552 223.229 93.2704 223.229 93.4575C223.255 93.8629 223.303 94.2665 223.373 94.6666Z" fill="#039EB0"/>
<defs>
<linearGradient id="paint0_linear" x1="167.033" y1="97.7039" x2="99.2641" y2="97.7039" gradientUnits="userSpaceOnUse">
<stop stop-color="white"/>
<stop offset="0.15" stop-color="white" stop-opacity="0.76"/>
<stop offset="0.32" stop-color="white" stop-opacity="0.53"/>
<stop offset="0.49" stop-color="white" stop-opacity="0.34"/>
<stop offset="0.64" stop-color="white" stop-opacity="0.19"/>
<stop offset="0.78" stop-color="white" stop-opacity="0.09"/>
<stop offset="0.91" stop-color="white" stop-opacity="0.02"/>
<stop offset="1" stop-color="white" stop-opacity="0"/>
</linearGradient>
</defs>
</svg>
