<svg width="350" height="298" viewBox="0 0 350 298" fill="none" xmlns="http://www.w3.org/2000/svg">
<path opacity="0.42" d="M344.953 0.519653H310.176C307.863 0.519653 305.988 2.39504 305.988 4.70844V88.0811C305.988 90.3945 307.863 92.2699 310.176 92.2699H344.953C347.267 92.2699 349.142 90.3945 349.142 88.0811V4.70844C349.142 2.39504 347.267 0.519653 344.953 0.519653Z" fill="white"/>
<path opacity="0.63" d="M342.737 12.5246H310.306V67.5546H342.737V12.5246Z" fill="#E54E40"/>
<path d="M336.777 31.2374C337.112 30.1298 337.163 28.9556 336.924 27.8234C336.685 26.6912 336.164 25.6375 335.41 24.7599C333.727 22.9041 331.588 21.5198 329.206 20.7439C326.556 19.6256 323.685 19.133 320.814 19.3044C319.381 19.4082 317.987 19.824 316.732 20.5227C315.476 21.2214 314.388 22.1861 313.545 23.3493C313.139 23.831 312.896 24.4283 312.849 25.0563C312.803 25.6842 312.955 26.3109 313.286 26.8471C313.656 27.1943 314.127 27.4159 314.631 27.4805C315.135 27.5451 315.646 27.4494 316.092 27.207C316.978 26.7122 317.745 26.0292 318.338 25.2061C318.149 25.4273 318.005 25.6835 317.915 25.9602C317.825 26.2369 317.791 26.5286 317.813 26.8186C317.836 27.1087 317.916 27.3914 318.048 27.6507C318.18 27.91 318.362 28.1407 318.583 28.3297C318.804 28.5188 319.06 28.6624 319.337 28.7524C319.613 28.8424 319.905 28.877 320.195 28.8543C320.485 28.8316 320.768 28.7519 321.027 28.62C321.286 28.488 321.517 28.3062 321.706 28.085C321.698 28.4918 321.83 28.8891 322.078 29.2111C322.327 29.5331 322.678 29.7605 323.074 29.8555C323.677 29.8807 324.276 29.7495 324.813 29.4746C325.35 29.1996 325.807 28.7904 326.14 28.2866C326.008 28.4346 325.908 28.6082 325.846 28.7966C325.785 28.985 325.763 29.184 325.782 29.3813C325.801 29.5786 325.86 29.7699 325.956 29.9431C326.053 30.1164 326.184 30.2679 326.341 30.3881C326.62 30.5706 326.95 30.658 327.282 30.6372C327.614 30.6164 327.93 30.4887 328.184 30.273C327.866 30.7148 327.65 31.2212 327.55 31.7561C327.451 32.291 327.47 32.8413 327.608 33.3678C327.453 32.8985 327.122 32.5078 326.684 32.2786C326.247 32.0494 325.737 31.9998 325.263 32.1402C324.789 32.2806 324.389 32.6001 324.147 33.0308C323.905 33.4616 323.84 33.9697 323.966 34.4474C323.93 34.1557 323.832 33.875 323.679 33.6237C323.526 33.3724 323.322 33.1562 323.08 32.9893C322.838 32.8223 322.564 32.7084 322.275 32.655C321.986 32.6015 321.688 32.6097 321.403 32.6791C321.117 32.7485 320.849 32.8775 320.617 33.0576C320.384 33.2377 320.193 33.4649 320.054 33.7242C319.916 33.9836 319.833 34.2692 319.813 34.5626C319.793 34.8559 319.834 35.1502 319.936 35.4262C319.627 35.0334 319.231 34.7171 318.78 34.502C318.329 34.2868 317.834 34.1785 317.334 34.1854C316.834 34.1924 316.343 34.3144 315.898 34.5421C315.453 34.7698 315.066 35.0969 314.768 35.4982C314.237 36.3697 314.004 37.3907 314.106 38.4064C314.207 39.422 314.637 40.377 315.33 41.1264C316.768 42.5925 318.693 43.4831 320.742 43.631C324.12 44.0329 327.533 43.2384 330.386 41.3855C330.386 42.825 330.616 44.2644 330.76 45.7038V46.1069C329.707 45.6618 328.589 45.3896 327.45 45.3008C326.591 45.2187 325.725 45.3144 324.905 45.5819C324.086 45.8493 323.33 46.2829 322.685 46.8554C322.059 47.4476 321.624 48.2137 321.437 49.0552C321.249 49.8966 321.318 50.7748 321.634 51.5768C321.865 51.5768 322.052 51.5768 322.282 51.5768L323.232 49.6767C323.123 50.0965 323.143 50.5393 323.29 50.9475C323.436 51.3558 323.702 51.7105 324.053 51.9654L324.7 49.8494C324.769 50.8111 325.207 51.7088 325.924 52.3541C326.456 51.0435 326.758 49.6507 326.816 48.2373C328.274 48.3952 329.718 48.6647 331.135 49.0434C331.135 49.4896 331.235 49.9214 331.293 50.3676C330.462 50.3137 329.628 50.4246 328.84 50.6938C328.052 50.9631 327.325 51.3855 326.701 51.9366C326.074 52.5317 325.64 53.3011 325.456 54.1454C325.271 54.9897 325.344 55.87 325.665 56.6724C325.895 56.6724 326.082 56.6724 326.312 56.6724L327.263 54.7724C327.154 55.1921 327.174 55.6349 327.32 56.0432C327.466 56.4514 327.732 56.8061 328.083 57.0611L328.731 54.9451C328.793 55.9084 329.233 56.8082 329.954 57.4497C330.487 56.1391 330.789 54.7463 330.847 53.3329L331.71 53.4625C332.31 58.2959 333.529 63.0322 335.338 67.5546H342.751V37.4558C341.09 35.0892 339.075 32.9919 336.777 31.2374ZM332.301 28.0418C332.016 28.0418 331.738 27.9574 331.501 27.7993C331.264 27.6411 331.08 27.4163 330.971 27.1533C330.862 26.8902 330.833 26.6008 330.889 26.3216C330.944 26.0424 331.081 25.7859 331.283 25.5846C331.484 25.3833 331.741 25.2462 332.02 25.1906C332.299 25.1351 332.588 25.1636 332.851 25.2725C333.114 25.3815 333.339 25.566 333.497 25.8027C333.656 26.0394 333.74 26.3177 333.74 26.6024C333.74 26.9768 333.594 27.3365 333.334 27.6053C333.073 27.874 332.718 28.0306 332.344 28.0418H332.301Z" fill="#013E53"/>
<path d="M319.346 75.2412H311.86C311.447 75.2374 311.051 75.0705 310.76 74.7766C310.469 74.4828 310.306 74.0859 310.306 73.6722C310.304 73.4662 310.343 73.2618 310.42 73.0707C310.497 72.8796 310.611 72.7056 310.755 72.5586C310.9 72.4115 311.071 72.2944 311.261 72.2138C311.451 72.1332 311.654 72.0907 311.86 72.0889H319.346C319.556 72.083 319.765 72.1198 319.961 72.1971C320.156 72.2744 320.334 72.3906 320.483 72.5386C320.633 72.6866 320.75 72.8634 320.83 73.0583C320.909 73.2531 320.947 73.462 320.943 73.6722C320.945 73.8813 320.905 74.0886 320.825 74.2818C320.745 74.4749 320.627 74.65 320.478 74.7965C320.329 74.9429 320.152 75.0578 319.957 75.1342C319.763 75.2107 319.555 75.2471 319.346 75.2412Z" fill="#E54E40"/>
<path d="M339.901 75.2413H332.459C332.045 75.2375 331.65 75.0705 331.359 74.7766C331.068 74.4828 330.904 74.0859 330.904 73.6723C330.902 73.4662 330.941 73.2618 331.018 73.0707C331.095 72.8796 331.209 72.7056 331.354 72.5586C331.498 72.4115 331.67 72.2944 331.86 72.2138C332.049 72.1332 332.253 72.0907 332.459 72.0889H339.944C340.356 72.0889 340.752 72.2527 341.043 72.5442C341.335 72.8357 341.499 73.2312 341.499 73.6435C341.505 73.8549 341.467 74.0653 341.389 74.2619C341.311 74.4584 341.193 74.637 341.044 74.7865C340.894 74.9361 340.716 75.0536 340.519 75.1318C340.323 75.21 340.112 75.2472 339.901 75.2413Z" fill="#E54E40"/>
<path d="M339.901 77.8898H311.861C311.002 77.8898 310.306 78.5859 310.306 79.4444V79.4588C310.306 80.3174 311.002 81.0134 311.861 81.0134H339.901C340.759 81.0134 341.456 80.3174 341.456 79.4588V79.4444C341.456 78.5859 340.759 77.8898 339.901 77.8898Z" fill="#E54E40"/>
<path d="M339.901 83.734H311.861C311.002 83.734 310.306 84.43 310.306 85.2886V85.303C310.306 86.1615 311.002 86.8576 311.861 86.8576H339.901C340.759 86.8576 341.456 86.1615 341.456 85.303V85.2886C341.456 84.43 340.759 83.734 339.901 83.734Z" fill="#E54E40"/>
<path d="M86.7168 154.987C80.8439 167.682 85.5221 182.552 90.6321 195.579C95.7422 208.606 101.313 222.928 97.0089 236.171C92.7049 249.414 79.4332 257.936 65.8449 260.642C52.2565 263.348 38.2363 261.059 24.576 258.828V271.956C24.576 271.956 76.1513 307.942 126.777 286.178C177.402 264.413 158.703 188.799 158.703 188.799L86.7168 154.987Z" fill="#013E53"/>
<path d="M90.9488 164.516H182.757C182.757 164.516 233.137 157.621 252.138 180.781C271.729 204.691 272.952 252.941 234.433 285.256H219.75C219.75 285.256 242.781 251.616 221.521 227.678C200.26 203.741 155.882 229.003 155.882 229.003L90.9488 164.516Z" fill="#013E53"/>
<path d="M302.231 77.4868C302.749 74.2048 301.885 70.8509 301.453 67.5402C301.266 66.1008 300.647 64.2871 299.179 64.1287C298.665 64.1231 298.163 64.2802 297.744 64.5776C297.325 64.8749 297.011 65.2973 296.847 65.7841C296.539 66.7654 296.417 67.7953 296.487 68.8213C296.487 76.436 295.451 82.2226 291.003 88.4122L282.769 97.4807C285.952 99.1596 289.521 99.9704 293.117 99.8314C296.713 99.6925 300.209 98.6086 303.253 96.689C305.973 94.9328 308.377 92.2267 308.564 89.0023C308.424 87.7044 308.551 86.3914 308.938 85.1446C309.349 84.5489 309.873 84.0401 310.481 83.6474C311.088 83.2546 311.768 82.9857 312.479 82.8559C314.66 82.2162 316.915 81.8677 319.187 81.8195C322.368 81.8724 325.529 81.3154 328.5 80.1785C328.77 80.0287 328.984 79.7963 329.111 79.5157C329.238 79.2351 329.272 78.9211 329.208 78.6198C329.143 78.3184 328.984 78.0457 328.753 77.8418C328.522 77.6378 328.232 77.5134 327.925 77.4868H302.231Z" fill="white"/>
<path d="M182.757 164.516H83.4349V154.555C83.4349 154.555 34.8248 150.582 40.2515 107.413C45.6782 64.2439 128.907 63.2651 128.907 63.2651H136.104C136.104 63.2651 166.635 71.6858 191.048 87.1599C229.769 111.731 292.629 85.8356 292.629 85.8356V99.7838C292.629 99.7838 255.449 145.601 177.762 140.29L182.757 164.516Z" fill="#eeeeee"/>
<path d="M178.338 97.9989C175.37 99.1484 172.206 99.7058 169.024 99.6398C166.749 99.7033 164.491 100.052 162.302 100.676C160.873 100.959 159.609 101.784 158.775 102.979C158.383 104.225 158.251 105.538 158.387 106.837C158.214 110.061 155.796 112.768 153.09 114.524C149.396 116.868 145.044 117.958 140.682 117.633V106.448L140.84 106.276C145.273 100.086 146.252 94.2995 146.31 86.6704C146.245 85.6483 146.372 84.623 146.684 83.6476C146.847 83.1632 147.159 82.7425 147.575 82.4453C147.991 82.1482 148.49 81.9896 149.002 81.9922C150.441 82.165 151.089 83.9355 151.29 85.4181C151.722 88.7001 152.586 92.0684 152.068 95.3647H177.762C178.052 95.4064 178.323 95.5358 178.537 95.7355C178.752 95.9352 178.901 96.1957 178.963 96.4821C179.026 96.7685 178.999 97.0673 178.888 97.3384C178.776 97.6094 178.584 97.8399 178.338 97.9989Z" fill="white"/>
<path d="M115.88 18.8294C115.189 27.7252 115.736 36.9232 119.248 45.1281C122.761 53.3329 129.627 60.343 138.278 62.531C142.97 63.7113 148.599 63.1211 151.636 59.3642C153.292 56.9738 154.285 54.1876 154.515 51.2889C155.347 45.8847 155.828 40.4321 155.954 34.9656C156.055 29.8412 155.767 24.4144 153.075 20.0817C149.491 14.4247 142.308 11.8625 135.615 12.1504C128.921 12.4383 122.588 15.1444 116.557 18.0665L114.988 15.677" fill="white"/>
<path d="M143.402 51.1737L137.083 68.4471C136.699 69.4953 136.1 70.4519 135.325 71.2557C134.55 72.0595 133.616 72.6929 132.582 73.1155C131.549 73.5381 130.439 73.7406 129.322 73.7101C128.206 73.6795 127.109 73.4166 126.1 72.9381C124.324 72.107 122.916 70.6517 122.143 68.8494C121.371 67.047 121.288 65.0236 121.911 63.1643C124.805 54.5927 125.639 45.4597 124.344 36.5058C130.219 41.9911 136.562 46.9521 143.301 51.3321" fill="white"/>
<path d="M158.372 15.0005C158.06 15.9313 157.497 16.7581 156.746 17.3899C154.644 19.2036 151.924 19.5779 149.304 19.9378L120.616 23.7955C122.471 25.437 123.79 27.5986 124.402 29.9995C124.805 31.5191 124.923 33.1007 124.747 34.6633C124.625 35.9588 124.284 37.2242 123.739 38.4058C123.298 39.3448 122.564 40.1158 121.649 40.6035C120.733 41.0913 119.684 41.2696 118.658 41.112C115.062 40.5959 111.724 38.9471 109.129 36.405C108.599 35.8629 108.117 35.2753 107.69 34.6489C106.692 33.2418 105.956 31.667 105.516 29.9995C104.956 27.8467 104.996 25.5818 105.631 23.45C106.329 21.1967 107.761 19.2421 109.7 17.8983C111.638 16.5546 113.971 15.8992 116.326 16.0369C120.351 10.0821 126.488 5.87808 133.494 4.27478C140.5 2.67148 147.854 3.78858 154.068 7.4002C156.731 8.99798 159.495 11.6322 158.372 15.0005Z" fill="#013E53"/>
<path d="M219.75 285.256L213.187 294.757C213.009 295.014 212.905 295.317 212.888 295.629C212.871 295.942 212.941 296.254 213.09 296.529C213.239 296.805 213.461 297.034 213.732 297.191C214.004 297.348 214.313 297.427 214.626 297.42H261.84C262.007 297.434 262.174 297.386 262.308 297.284C262.441 297.182 262.532 297.034 262.563 296.868C262.593 296.703 262.561 296.532 262.473 296.39C262.384 296.247 262.246 296.142 262.084 296.095L234.404 285.256H219.75Z" fill="#039EB0"/>
<path d="M24.576 258.785L8.74209 252.178C8.27665 251.983 7.75736 251.958 7.27556 252.108C6.79376 252.258 6.3803 252.574 6.10791 252.998C2.30777 258.972 -9.62523 281.557 15.9537 295.721C16.1793 295.844 16.4379 295.893 16.6928 295.861C16.9478 295.829 17.1861 295.717 17.3741 295.542C17.5621 295.367 17.6901 295.137 17.74 294.885C17.7899 294.633 17.7592 294.371 17.6523 294.138C14.4135 287.041 8.77088 271.006 24.6336 271.913L24.576 258.785Z" fill="#039EB0"/>
<path d="M80.2537 98.8626C77.0438 100.705 75.9354 105.167 77.2453 108.622C77.9926 110.326 79.1041 111.846 80.5017 113.074C81.8993 114.303 83.5491 115.21 85.335 115.733C88.9045 116.759 92.6306 117.13 96.3323 116.827C111.361 116.225 126.113 112.592 139.703 106.146" stroke="white" stroke-linecap="round" stroke-linejoin="round"/>
<path d="M83.6796 154.137C103.515 152.021 127.266 136.432 140.682 117.719" stroke="white" stroke-linecap="round" stroke-linejoin="round"/>
<path d="M172.781 119.331L178.136 140.29" stroke="white" stroke-linecap="round" stroke-linejoin="round"/>
<path d="M159.38 210.794C160.898 215.747 161.721 220.887 161.827 226.066" stroke="#039EB0" stroke-linecap="round" stroke-linejoin="round"/>
<path d="M183.908 218.711C193.293 215.486 202.894 215.544 211.344 220.309" stroke="#039EB0" stroke-miterlimit="10" stroke-linecap="round"/>
<path d="M182.843 164.501C187.449 164.127 194.215 163.782 198.792 163.753" stroke="#039EB0" stroke-miterlimit="10" stroke-linecap="round"/>
<path d="M36.581 260.311L42.3387 261.261" stroke="#039EB0" stroke-linecap="round" stroke-linejoin="round"/>
<path d="M25.3101 272.042L27.9443 273.726" stroke="#039EB0" stroke-linecap="round" stroke-linejoin="round"/>
<path d="M18.4583 256.223C20.5509 257.348 22.7751 258.208 25.0798 258.785" stroke="#013E53" stroke-linecap="round" stroke-linejoin="round"/>
<path d="M134.852 23.4788L321.793 0.116608V95.5662L134.852 41.1696V23.4788Z" fill="url(#paint0_linear)"/>
<path d="M126.705 32.317C126.708 34.6637 127.642 36.9132 129.302 38.5725C130.961 40.2319 133.21 41.1658 135.557 41.1696H157.25C159.534 41.0774 161.694 40.1052 163.277 38.4564C164.861 36.8077 165.745 34.6102 165.745 32.3242C165.745 30.0381 164.861 27.8407 163.277 26.1919C161.694 24.5432 159.534 23.571 157.25 23.4788H135.557C133.213 23.4826 130.966 24.4145 129.307 26.0708C127.648 27.727 126.712 29.9728 126.705 32.317Z" fill="#039EB0"/>
<path d="M134.852 32.317C134.856 34.6662 135.792 36.9178 137.454 38.5776C139.116 40.2374 141.37 41.1696 143.719 41.1696H157.25C159.534 41.0774 161.694 40.1052 163.277 38.4564C164.861 36.8077 165.745 34.6102 165.745 32.3242C165.745 30.0381 164.861 27.8407 163.277 26.1919C161.694 24.5432 159.534 23.571 157.25 23.4788H143.719C141.372 23.4788 139.121 24.409 137.459 26.0657C135.797 27.7224 134.859 29.9703 134.852 32.317Z" fill="#41ABB5"/>
<path d="M160.359 32.317H140.61" stroke="#E54E40" stroke-width="5.54" stroke-miterlimit="10" stroke-linecap="round"/>
<path d="M123.466 40.9249C122.186 38.4073 119.976 36.4867 117.305 35.5701C116.558 35.2484 115.746 35.1056 114.934 35.153C114.121 35.2005 113.332 35.437 112.627 35.8436C111.936 36.3882 111.428 37.1308 111.171 37.972C110.914 38.8131 110.919 39.7128 111.187 40.5506C111.792 42.206 112.959 43.5966 114.484 44.4803C116.296 45.6109 118.365 46.2622 120.498 46.3729C122.631 46.4837 124.757 46.0504 126.676 45.1137" fill="white"/>
<path d="M128.95 29.9995V34.6633H107.632C106.635 33.2562 105.899 31.6814 105.458 30.0139L128.95 29.9995Z" fill="#039EB0"/>
<path d="M83.8523 164.559C83.0823 169.502 83.6284 174.561 85.4357 179.227" stroke="#039EB0" stroke-linecap="round" stroke-linejoin="round"/>
<defs>
<linearGradient id="paint0_linear" x1="134.852" y1="47.8486" x2="321.793" y2="47.8486" gradientUnits="userSpaceOnUse">
<stop stop-color="white"/>
<stop offset="0.22" stop-color="white" stop-opacity="0.76"/>
<stop offset="0.6" stop-color="white" stop-opacity="0.36"/>
<stop offset="0.87" stop-color="white" stop-opacity="0.1"/>
<stop offset="1" stop-color="white" stop-opacity="0"/>
</linearGradient>
</defs>
</svg>
