<svg width="502" height="622" viewBox="0 0 502 622" fill="none" xmlns="http://www.w3.org/2000/svg">
<path d="M167.255 337.814V528.976C167.255 553.647 177.034 577.308 194.44 594.754C211.847 612.199 235.455 622 260.072 622H335.74C358.627 621.994 380.704 613.514 397.732 598.188C414.76 582.861 425.538 561.77 427.996 538.965C455.13 537.605 501.729 520.128 501.982 461.279V460.807C501.729 402.338 455.691 384.662 428.539 383.157V337.832L167.255 337.814ZM428.557 511.535V410.533C440.604 411.73 474.649 418.8 474.775 461.043C474.902 503.286 440.604 510.356 428.557 511.535Z" fill="url(#paint0_linear)"/>
<path opacity="0.6" d="M390.732 146.236C267.145 68.2409 335.469 0 335.469 0H305.35C287.423 28.8628 251.081 97.9014 331.507 170.113C218.376 107.728 262.55 25.1824 274.435 0H39.2722C37.1738 26.9954 37.825 70.7065 55.8783 113.094C26.3201 83.3975 20.423 27.7387 19.3738 0H0C0 181.299 76.5002 193.319 160.327 229.597C234.493 261.687 171.759 347.731 171.759 347.731H393.572C393.572 347.731 514.228 224.23 390.732 146.236Z" fill="#E2E4EC"/>
<path d="M231.393 467L173.163 535.694L140.855 504.547L123.092 522.786L173.163 572.625L251.165 483.825L231.393 467Z" fill="#7C2AE8"/>
<path d="M299.5 504C319.796 504 336.25 488.33 336.25 469C336.25 449.67 319.796 434 299.5 434C279.204 434 262.75 449.67 262.75 469C262.75 488.33 279.204 504 299.5 504Z" fill="#FF4300"/>
<path d="M286.33 464.312L277.497 456.893C277.488 456.882 277.483 456.868 277.483 456.853C277.483 456.839 277.488 456.825 277.497 456.813C280.106 452.502 284.036 449.053 288.761 446.929C293.485 444.804 298.779 444.105 303.932 444.925C309.085 445.745 313.853 448.046 317.595 451.518C321.337 454.99 323.876 459.469 324.872 464.353C324.873 464.363 324.873 464.372 324.87 464.381C324.868 464.39 324.863 464.398 324.857 464.405C324.851 464.412 324.843 464.418 324.835 464.422C324.826 464.426 324.816 464.428 324.807 464.428H313.063C313.05 464.428 313.037 464.424 313.026 464.416C313.016 464.409 313.008 464.399 313.003 464.387C312.008 461.8 310.206 459.566 307.838 457.984C305.471 456.401 302.651 455.547 299.759 455.536C296.867 455.526 294.04 456.358 291.659 457.922C289.279 459.487 287.458 461.707 286.441 464.286C286.438 464.297 286.432 464.307 286.424 464.315C286.416 464.323 286.405 464.328 286.394 464.331C286.383 464.333 286.371 464.333 286.359 464.33C286.348 464.327 286.338 464.32 286.33 464.312Z" fill="white"/>
<path d="M324.931 473.29C323.855 479.033 320.655 484.218 315.911 487.908C311.167 491.597 305.192 493.547 299.069 493.404C285.246 493.089 274.05 482.142 274.069 468.967C274.069 467.157 274.281 465.352 274.7 463.587C274.703 463.577 274.709 463.567 274.716 463.559C274.724 463.551 274.734 463.545 274.745 463.542C274.755 463.539 274.767 463.538 274.778 463.54C274.789 463.542 274.8 463.547 274.808 463.554L286.214 473.138C286.222 473.145 286.227 473.154 286.23 473.164C287.152 475.864 288.945 478.219 291.353 479.892C293.762 481.565 296.664 482.471 299.645 482.482C302.627 482.492 305.535 481.607 307.957 479.951C310.379 478.295 312.19 475.953 313.133 473.259C313.137 473.247 313.145 473.236 313.155 473.229C313.166 473.221 313.179 473.217 313.193 473.218H324.866C324.876 473.218 324.885 473.22 324.894 473.223C324.903 473.227 324.91 473.233 324.917 473.24C324.923 473.246 324.927 473.255 324.93 473.263C324.933 473.272 324.933 473.281 324.931 473.29Z" fill="white"/>
<defs>
<linearGradient id="paint0_linear" x1="208" y1="359" x2="387" y2="560.5" gradientUnits="userSpaceOnUse">
<stop offset="0.0525663" stop-color="#E2E4EC"/>
<stop offset="1" stop-color="#CBCFDF"/>
</linearGradient>
</defs>
</svg>
