<svg width="250" height="489" viewBox="0 0 250 489" fill="none" xmlns="http://www.w3.org/2000/svg">
<path d="M77.526 33.8565L260 -9.15527e-05V448L124.21 415.581C60.7169 400.423 27.8922 330.082 57.0595 271.684C66.2273 253.328 60.2393 231.017 43.1126 219.719L32.4274 212.67C12.1825 199.314 0 176.682 0 152.429V127.09C0 81.3913 32.5942 42.1933 77.526 33.8565Z" fill="#E2E4EC"/>
<path d="M84.6771 451.977L282 488V14.9999L134.581 49.628C67.5869 65.3648 33.0307 139.695 64.1807 201.059C74.0111 220.424 67.649 244.086 49.4324 255.91L37.6973 263.527C16.0584 277.573 3 301.617 3 327.414V354.04C3 402.127 37.3716 443.342 84.6771 451.977Z" stroke="#7C2AE8"/>
</svg>
