<svg width="237" height="46" viewBox="0 0 237 46" fill="none" xmlns="http://www.w3.org/2000/svg">
<path d="M82.6975 31.2868L82.0461 32.2242C80.7563 34.0523 78.9735 35.5161 76.8848 36.4617C74.7723 37.4431 72.3394 37.938 69.6537 37.938C65.5247 37.938 62.0364 36.6617 59.2849 34.1395C56.5334 31.6174 55.1168 28.4748 55.1168 24.8577C55.1087 22.4562 55.7807 20.097 57.062 18.0286C58.3434 15.9602 60.1866 14.2592 62.3977 13.1046C64.6277 11.9384 67.1603 11.3554 69.9225 11.3554C71.6253 11.3541 73.3178 11.6081 74.9378 12.1079C76.4336 12.5494 77.843 13.2223 79.1095 14.0996C80.3112 14.9773 81.3199 16.0715 82.0781 17.32L82.6548 18.254L78.2926 20.8473L77.6519 20.0287C75.7209 17.559 73.1474 16.3624 69.789 16.3624C67.1034 16.3624 64.9481 17.1522 63.195 18.7777C62.3567 19.5245 61.6929 20.431 61.2467 21.4382C60.8005 22.4454 60.5821 23.5308 60.6055 24.6238C60.6061 26.1123 61.02 27.5742 61.8051 28.8613C62.565 30.1534 63.6936 31.2141 65.0602 31.9208C66.5143 32.6589 68.1414 33.0333 69.789 33.0089C73.0441 33.0089 75.623 31.8224 77.6733 29.3664L78.3318 28.5765L82.6975 31.2868Z" fill="#8F9199"/>
<path d="M114.313 24.7306C114.313 21.2151 113.056 18.1336 110.584 15.5776C107.895 12.7741 104.471 11.3553 100.393 11.3553C96.3159 11.3553 92.9023 12.7825 90.1971 15.6115C87.8064 18.0983 86.5004 21.3592 86.5451 24.7306C86.5451 28.2341 87.8425 31.3411 90.4018 33.9598C92.961 36.5786 96.3426 37.9397 100.393 37.9397H100.495C103.94 37.6634 106.676 36.6447 108.667 34.9056V38.0499H114.081L114.284 37.1803C114.325 36.9905 114.355 36.8668 114.313 24.7306ZM93.3508 29.0528C92.5279 27.762 92.0875 26.283 92.0765 24.773C92.0765 22.4559 92.8827 20.5355 94.5468 18.9015C96.2109 17.2675 98.1063 16.4895 100.393 16.4895C102.68 16.4895 104.56 17.2777 106.165 18.8913C106.753 19.4766 107.249 20.1407 107.635 20.8626C108.138 22.4941 108.342 24.1959 108.238 25.8933C106.055 31.3377 102.57 33.5022 97.5848 32.5038C95.5897 31.5377 94.1659 30.38 93.3508 29.0528Z" fill="#8F9199"/>
<path d="M132.39 4.91535L132.016 5.79505C131.77 6.36966 131.446 7.18834 131.053 8.22907L130.596 9.44099L129.403 8.8291C128.191 8.20704 127.09 8.1511 125.952 8.6596C125.406 8.95114 124.452 9.9478 124.016 13.3395V14.4887H129.79V19.2686H123.993V37.9678H118.508V12.7581C118.554 10.6766 119.015 8.94436 119.868 7.57311C121.236 4.91535 123.443 3.48986 126.431 3.35934C128.033 3.03899 129.747 3.39663 131.535 4.4255L132.39 4.91535Z" fill="#8F9199"/>
<path d="M157.21 27.9867C156.321 29.402 155.495 30.4207 154.769 31.0173C153.988 31.6431 153.097 32.131 152.136 32.4581C151.109 32.8243 150.021 33.0115 148.924 33.0106C146.671 33.0106 144.831 32.275 143.302 30.7614C141.999 29.4732 141.239 27.9053 141.001 25.9883H162.802V24.8746C162.786 21.4745 161.806 18.5811 159.887 16.2776C157.171 13.008 153.521 11.3553 149.036 11.3553C144.635 11.3553 141.073 12.9808 138.457 16.1827C136.427 18.612 135.335 21.6325 135.366 24.7374C135.366 28.1121 136.589 31.1783 139 33.8497C141.456 36.5617 144.886 37.9465 149.191 37.9465C150.975 37.9695 152.749 37.6823 154.425 37.099C155.98 36.5364 157.409 35.6984 158.636 34.6294C159.882 33.553 160.969 32.1292 161.875 30.3919L162.379 29.424L157.78 27.0883L157.21 27.9867ZM156.63 21.2067H141.712C142.236 19.9829 142.896 19.0201 143.683 18.3421C145.195 17.0522 146.95 16.4251 149.057 16.4251C150.323 16.4228 151.573 16.6873 152.718 17.1997C153.787 17.6521 154.731 18.3337 155.477 19.1913C155.969 19.8024 156.358 20.4829 156.63 21.2084V21.2067Z" fill="#8F9199"/>
<path d="M181.139 1.0719L172.609 8.26208H167.77L173.974 1.0719H181.139Z" fill="#8F9199"/>
<path d="M173.121 11.9434H167.636V37.3717H173.121V11.9434Z" fill="#8F9199"/>
<path d="M204.217 24.8797V37.921H198.774V25.7492C198.774 22.5406 198.596 21.2015 198.456 20.6422C198.148 19.376 197.602 18.5353 196.776 18.0522C195.873 17.5234 194.441 17.2539 192.524 17.2539C190.95 17.2284 189.412 17.7025 188.153 18.6014C186.98 19.4269 186.473 20.4811 186.551 21.9219V22.0795L186.516 22.2321C186.256 23.3016 186.122 25.3458 186.122 28.3069V37.921H180.644V28.0205L180.601 25.5543C180.547 24.4646 180.603 23.3725 180.769 22.2931C181.125 19.3913 181.911 17.2945 183.164 15.8724L183.203 15.8284C184.232 14.7511 185.429 13.8317 186.752 13.1028L186.873 13.052C188.852 12.2451 191.132 11.8655 193.636 11.9062C194.629 11.9041 195.617 12.0289 196.575 12.2774C197.533 12.5244 198.451 12.8963 199.303 13.3825C201.007 14.3074 202.349 15.7353 203.126 17.4505C203.859 19.0929 204.217 21.527 204.217 24.8797Z" fill="#8F9199"/>
<path d="M236.979 24.7322C236.979 21.2167 235.722 18.1352 233.252 15.5792C230.561 12.7706 227.131 11.3417 223.063 11.3417C218.994 11.3417 215.563 12.7756 212.867 15.6046C210.474 18.0902 209.166 21.3516 209.211 24.7237C209.211 28.2272 210.51 31.3342 213.066 33.9529C215.622 36.5717 219.012 37.9328 223.063 37.9328H223.159C226.604 37.6565 229.34 36.6378 231.337 34.8988V38.043H236.747L236.952 37.1734C236.995 36.9921 237.021 36.8683 236.979 24.7322ZM216.015 29.0544C215.195 27.7625 214.755 26.2841 214.743 24.7745C214.743 22.4575 215.552 20.537 217.215 18.9031C218.877 17.2691 220.774 16.4911 223.063 16.4911C225.352 16.4911 227.227 17.2793 228.831 18.8929C229.419 19.479 229.916 20.143 230.305 20.8642C230.805 22.4961 231.008 24.1977 230.904 25.8949C228.721 31.3393 225.236 33.5038 220.254 32.5054C218.258 31.5393 216.832 30.3816 216.015 29.0544Z" fill="#8F9199"/>
<path d="M24.1316 45.965C37.4591 45.965 48.2631 35.6754 48.2631 22.9825C48.2631 10.2896 37.4591 0 24.1316 0C10.8041 0 0 10.2896 0 22.9825C0 35.6754 10.8041 45.965 24.1316 45.965Z" fill="#8F9199"/>
<path d="M15.4836 19.9045L9.68344 15.033C9.67751 15.0254 9.67432 15.0162 9.67432 15.0068C9.67432 14.9973 9.67751 14.9881 9.68344 14.9805C11.3967 12.1496 13.9773 9.88495 17.0796 8.48978C20.1819 7.0946 23.6578 6.63555 27.0417 7.17412C30.4256 7.71269 33.5559 9.22315 36.0133 11.5032C38.4707 13.7832 40.1379 16.724 40.7916 19.9316C40.7926 19.9375 40.7923 19.9436 40.7906 19.9495C40.789 19.9553 40.786 19.9607 40.782 19.9654C40.7779 19.97 40.7729 19.9738 40.7672 19.9765C40.7615 19.9791 40.7553 19.9806 40.7489 19.9807H33.0373C33.0286 19.9805 33.0203 19.9778 33.0133 19.973C33.0063 19.9681 33.001 19.9614 32.9981 19.9536C32.345 18.2551 31.1615 16.7878 29.6068 15.7489C28.0521 14.7099 26.2007 14.1492 24.3015 14.142C22.4023 14.1348 20.5463 14.6815 18.983 15.7086C17.4196 16.7357 16.2239 18.194 15.5566 19.8875C15.5546 19.8946 15.5507 19.901 15.5452 19.9062C15.5397 19.9113 15.5329 19.9149 15.5254 19.9167C15.5179 19.9184 15.5101 19.9182 15.5028 19.916C15.4954 19.9139 15.4888 19.9099 15.4836 19.9045Z" fill="#E2E4EC"/>
<path d="M40.8309 25.8004C40.124 29.5712 38.0227 32.9762 34.9075 35.3989C31.7923 37.8217 27.8692 39.1019 23.8485 39.0079C14.7718 38.8011 7.41969 31.6126 7.43214 22.9613C7.4327 21.7729 7.57178 20.5882 7.84683 19.4289C7.84872 19.4221 7.85239 19.4158 7.85751 19.4106C7.86263 19.4055 7.86902 19.4016 7.8761 19.3994C7.88319 19.3972 7.89074 19.3968 7.89806 19.3981C7.90539 19.3994 7.91225 19.4024 7.91802 19.4069L15.4072 25.7004C15.4124 25.705 15.4161 25.7109 15.4179 25.7174C16.023 27.4905 17.2003 29.0366 18.7821 30.1352C20.3638 31.2338 22.2692 31.829 24.2269 31.836C26.1846 31.8429 28.0946 31.2613 29.6849 30.1739C31.2752 29.0865 32.4646 27.5489 33.0836 25.7801C33.086 25.772 33.0912 25.765 33.0983 25.7601C33.1054 25.7552 33.114 25.7527 33.1228 25.753H40.7881C40.7944 25.7529 40.8006 25.7541 40.8063 25.7566C40.812 25.759 40.8171 25.7626 40.8212 25.7672C40.8252 25.7717 40.8282 25.777 40.8299 25.7828C40.8316 25.7885 40.8319 25.7946 40.8309 25.8004Z" fill="#E2E4EC"/>
</svg>
