<svg width="31" height="31" viewBox="0 0 31 31" fill="none" xmlns="http://www.w3.org/2000/svg">
<path d="M26.459 0H4.54102C2.03731 0 0 2.03731 0 4.54102V26.459C0 28.9627 2.03731 31 4.54102 31H26.459C28.9627 31 31 28.9627 31 26.459V4.54102C31 2.03731 28.9627 0 26.459 0ZM15.5605 23.6133C11.0534 23.6133 7.38672 19.9466 7.38672 15.4395C7.38672 10.9323 11.0534 7.26562 15.5605 7.26562C20.0677 7.26562 23.7344 10.9323 23.7344 15.4395C23.7344 19.9466 20.0677 23.6133 15.5605 23.6133ZM24.6426 9.08203C23.1403 9.08203 21.918 7.85974 21.918 6.35742C21.918 4.8551 23.1403 3.63281 24.6426 3.63281C26.1449 3.63281 27.3672 4.8551 27.3672 6.35742C27.3672 7.85974 26.1449 9.08203 24.6426 9.08203Z" fill="#8F9199"/>
<path d="M24.6426 5.44922C24.1414 5.44922 23.7344 5.85625 23.7344 6.35742C23.7344 6.85859 24.1414 7.26562 24.6426 7.26562C25.1437 7.26562 25.5508 6.85859 25.5508 6.35742C25.5508 5.85625 25.1437 5.44922 24.6426 5.44922Z" fill="#8F9199"/>
<path d="M15.5605 9.08203C12.0555 9.08203 9.20312 11.9344 9.20312 15.4395C9.20312 18.9445 12.0555 21.7969 15.5605 21.7969C19.0656 21.7969 21.918 18.9445 21.918 15.4395C21.918 11.9344 19.0656 9.08203 15.5605 9.08203Z" fill="#8F9199"/>
</svg>
