<svg width="31" height="31" viewBox="0 0 31 31" fill="none" xmlns="http://www.w3.org/2000/svg">
<path d="M26.459 0H4.54102C2.03731 0 0 2.03731 0 4.54102V26.459C0 28.9627 2.03731 31 4.54102 31H26.459C28.9627 31 31 28.9627 31 26.459V4.54102C31 2.03731 28.9627 0 26.459 0ZM10.959 24.582H7.32617V11.8672H10.959V24.582ZM10.959 10.0508H7.32617V6.41797H10.959V10.0508ZM23.6738 24.582H20.041V17.3164C20.041 16.315 19.226 15.5 18.2246 15.5C17.2232 15.5 16.4082 16.315 16.4082 17.3164V24.582H12.7754V11.8672H16.4082V12.5519C17.3599 12.256 17.9782 11.8672 19.1328 11.8672C21.5965 11.8698 23.6738 14.08 23.6738 16.692V24.582Z" fill="#8F9199"/>
</svg>
