<svg width="31" height="26" viewBox="0 0 31 26" fill="none" xmlns="http://www.w3.org/2000/svg">
<path d="M11.5651 26C10.2245 26 8.84474 25.8888 7.45667 25.6658C5.01187 25.2727 2.53704 23.9622 1.83673 23.5698L0 22.5407L1.98857 21.8705C4.16233 21.1381 5.48465 20.6837 7.12154 19.9721C5.48252 19.1587 4.21933 17.6955 3.61126 15.8041L3.14865 14.3649L3.52801 14.4243C3.16828 14.0527 2.88423 13.6756 2.66404 13.3326C1.88096 12.1138 1.46636 10.6244 1.55458 9.3481L1.64161 8.09191L2.3755 8.38323C2.06591 7.7841 1.84217 7.14425 1.71067 6.47362C1.3902 4.83812 1.6584 3.10058 2.46608 1.58117L3.10537 0.378543L3.96035 1.43091C6.66436 4.75959 10.0893 6.73416 14.1541 7.31221C13.9881 6.13939 14.1125 5.00753 14.5243 3.99298C15.0037 2.81168 15.8565 1.80997 16.9899 1.09595C18.2486 0.303167 19.775 -0.0809868 21.288 0.0142639C22.8932 0.115331 24.3505 0.731673 25.508 1.79785C26.0733 1.64734 26.4898 1.48665 27.0527 1.26949C27.3913 1.13885 27.7754 0.990523 28.256 0.820865L30.027 0.195555L28.8721 3.57562C28.9483 3.56908 29.0268 3.5635 29.1089 3.55987L31 3.47213L29.8823 5.03758C29.8182 5.12726 29.8018 5.15271 29.7791 5.18785C29.689 5.32697 29.5769 5.50002 28.0427 7.59942C27.6586 8.12511 27.4668 8.8098 27.5025 9.5277C27.6385 12.2558 27.3119 14.7241 26.5312 16.8637C25.7928 18.888 24.6485 20.6248 23.1306 22.0259C21.2523 23.7593 18.8571 24.9462 16.0115 25.5531C14.6156 25.8507 13.1166 26 11.5651 26Z" fill="#8F9199"/>
</svg>
