<svg width="108" height="103" viewBox="0 0 108 103" fill="none" xmlns="http://www.w3.org/2000/svg">
<path d="M103.304 57.1907C105.716 54.3972 106.911 51.1031 106.89 47.3074C106.871 43.8654 105.595 40.894 103.07 38.3913C100.541 35.8888 97.5557 34.6479 94.1136 34.6671L75.7784 34.7695C75.9511 34.1508 76.1248 33.6203 76.2986 33.1781C76.4707 32.7359 76.7133 32.2486 77.018 31.7173C77.3229 31.1858 77.5421 30.7872 77.6726 30.5222C78.4583 29.0181 79.0593 27.7783 79.4736 26.8058C79.8871 25.8316 80.2968 24.5058 80.708 22.8265C81.1185 21.1481 81.3178 19.4693 81.3085 17.7923C81.3026 16.7337 81.285 15.8724 81.2604 15.2111C81.2361 14.5492 81.1181 13.5566 80.9139 12.2336C80.7066 10.9113 80.4352 9.80944 80.1002 8.92909C79.7637 8.04851 79.2281 7.05776 78.4951 5.95936C77.7605 4.85889 76.8733 3.97142 75.8315 3.29279C74.7899 2.61462 73.4633 2.04841 71.85 1.5944C70.2352 1.13993 68.4145 0.918466 66.3833 0.929806C65.2361 0.93621 64.2463 1.36117 63.4117 2.20446C62.5342 3.09181 61.789 4.19915 61.1792 5.526C60.5684 6.85355 60.1443 8.00339 59.9067 8.97597C59.6694 9.94808 59.4008 11.296 59.1027 13.0183C58.7145 14.8748 58.4254 16.2106 58.2301 17.028C58.0365 17.8455 57.6552 18.9176 57.0895 20.2445C56.5226 21.5722 55.8452 22.6345 55.0551 23.4337C53.6072 24.8978 51.3937 27.5582 48.4136 31.414C46.2664 34.25 44.053 36.9322 41.7724 39.4606C39.4914 41.9895 37.8219 43.3004 36.7635 43.3947C35.6615 43.4889 34.7151 43.9466 33.9251 44.7678C33.1351 45.5886 32.7433 46.5509 32.7495 47.6538L32.9863 90.0849C32.9927 91.2323 33.4172 92.2114 34.2603 93.0231C35.103 93.8357 36.0985 94.2602 37.2461 94.2981C38.7908 94.3338 42.2825 95.2841 47.7214 97.1532C51.1254 98.2798 53.7887 99.1378 55.7117 99.722C57.6343 100.306 60.3206 100.932 63.7639 101.597C67.2105 102.262 70.3893 102.587 73.3011 102.571L74.4267 102.564L79.4579 102.536L81.8404 102.523C87.7106 102.402 92.0459 100.656 94.8525 97.2874C97.3942 94.2278 98.4526 90.2279 98.0292 85.2875C99.7409 83.6452 100.922 81.5653 101.569 79.0456C102.303 76.351 102.288 73.7691 101.525 71.3025C103.54 68.5991 104.472 65.5709 104.32 62.2177C104.318 60.8041 103.978 59.1294 103.304 57.1907Z" fill="url(#paint0_linear)"/>
<path d="M24.2546 43.532L5.19086 43.6384C4.04274 43.6448 3.05206 44.0698 2.21837 44.9131C1.38467 45.7559 0.970798 46.7513 0.977203 47.8987L1.21372 90.2653C1.22011 91.4111 1.64508 92.4023 2.48837 93.2369C3.33211 94.0694 4.32747 94.4835 5.4749 94.4771L24.5384 94.3707C25.6856 94.3643 26.6758 93.9391 27.51 93.0972C28.3437 92.2532 28.7573 91.2576 28.7509 90.1116L28.5144 47.745C28.508 46.5975 28.083 45.6071 27.2402 44.7734C26.3969 43.9392 25.402 43.5256 24.2546 43.532ZM16.8714 84.7151C16.0376 85.5361 15.0471 85.9497 13.8997 85.9561C12.708 85.9628 11.7015 85.5603 10.8811 84.7485C10.0602 83.9367 9.64652 82.9353 9.63987 81.7436C9.63346 80.5964 10.0357 79.6009 10.8476 78.7582C11.6591 77.915 12.6607 77.4895 13.8524 77.4829C14.9998 77.4765 15.9949 77.8908 16.838 78.7247C17.6813 79.558 18.1062 80.5489 18.1126 81.6963C18.1193 82.888 17.7064 83.8938 16.8714 84.7151Z" fill="url(#paint1_linear)"/>
<defs>
<linearGradient id="paint0_linear" x1="69.5598" y1="0.912073" x2="70.0658" y2="91.5493" gradientUnits="userSpaceOnUse">
<stop offset="0.223958" stop-color="#E54E40"/>
<stop offset="1" stop-color="#7C2AE8"/>
</linearGradient>
<linearGradient id="paint1_linear" x1="14.7221" y1="43.5852" x2="14.9751" y2="88.9043" gradientUnits="userSpaceOnUse">
<stop offset="0.223958" stop-color="#E54E40"/>
<stop offset="1" stop-color="#7C2AE8"/>
</linearGradient>
</defs>
</svg>
