<svg width="137" height="149" viewBox="0 0 137 149" fill="none" xmlns="http://www.w3.org/2000/svg">
<path d="M93.2158 79.6016C99.423 75.8598 104.551 70.7894 108.187 64.8242L117.591 64.8011L117.487 22.3703L108.083 22.3934C104.383 16.3909 99.1682 11.3042 92.8643 7.58284C85.5324 3.25534 77.044 0.97885 68.3184 1.00023C59.5941 1.0216 51.1181 3.33965 43.8063 7.70415C37.5207 11.4563 32.3312 16.5675 28.6605 22.588L19.2564 22.611L19.3603 65.0418L28.7645 65.0188C32.4306 70.9649 37.5834 76.0102 43.8089 79.7215C19.1896 86.0594 1.07891 107.173 1.14006 132.13L1.18117 148.913L136.181 148.582L136.14 131.8C136.079 106.842 117.865 85.8176 93.2158 79.6016ZM68.5108 86.412L68.5277 86.4119L68.5446 86.4119L76.7291 86.3918L68.5682 102.947C65.9495 97.7006 62.6549 91.0975 60.3262 86.432L68.5108 86.412ZM28.6141 56.3609L28.5525 31.2464L108.233 31.0512L108.295 56.1657L28.6141 56.3609ZM48.8016 14.9975C54.6243 11.5215 61.3807 9.67545 68.3396 9.6584C75.2998 9.64135 82.0652 11.4543 87.906 14.9017C91.3512 16.9346 94.3847 19.4815 96.906 22.4208L39.8386 22.5606C42.3442 19.609 45.3664 17.0473 48.8016 14.9975ZM39.9425 64.9914L97.0099 64.8516C94.5043 67.8031 91.4821 70.3649 88.0469 72.4158C82.2291 75.8884 75.4787 77.7344 68.5246 77.7537L68.4895 77.7538C61.5366 77.7686 54.7773 75.9556 48.9425 72.5105C45.4973 70.4775 42.4626 67.9306 39.9425 64.9914ZM126.885 139.946L10.4349 140.232L10.415 132.108C10.3602 109.741 27.6714 91.0457 50.4625 87.172C54.302 94.8649 64.3897 115.08 64.3897 115.08L68.6187 123.554L86.5975 87.0823C109.407 90.8455 126.81 109.456 126.865 131.822L126.885 139.946Z" fill="url(#paint0_linear)"/>
<path d="M42.5472 39.4407L94.2786 39.314L94.2998 47.971L42.5684 48.0978L42.5472 39.4407Z" fill="url(#paint1_linear)"/>
<defs>
<linearGradient id="paint0_linear" x1="68.319" y1="1.00022" x2="68.6417" y2="132.706" gradientUnits="userSpaceOnUse">
<stop offset="0.223958" stop-color="#E54E40"/>
<stop offset="1" stop-color="#7C2AE8"/>
</linearGradient>
<linearGradient id="paint1_linear" x1="65.7061" y1="36.594" x2="64.5942" y2="63.0692" gradientUnits="userSpaceOnUse">
<stop offset="0.223958" stop-color="#E54E40"/>
<stop offset="1" stop-color="#7C2AE8"/>
</linearGradient>
</defs>
</svg>
