<svg width="83" height="145" viewBox="0 0 83 145" fill="none" xmlns="http://www.w3.org/2000/svg">
<path d="M71.6278 1.02337L11.4618 0.976752C5.70362 0.97229 1.0518 5.63773 1.04735 11.3855L0.952685 133.562C0.948235 139.305 5.59282 143.972 11.351 143.977L71.517 144.023C77.2648 144.028 81.927 139.368 81.9315 133.625L82.0261 11.4482C82.0306 5.70048 77.3756 1.02782 71.6278 1.02337ZM26.6938 7.3147L56.3964 7.33771C57.1468 7.33829 57.7556 8.45913 57.7546 9.84525C57.7535 11.2314 57.1429 12.3565 56.3925 12.3559L26.6899 12.3329C25.9343 12.3323 25.3359 11.2063 25.337 9.82013C25.3381 8.43401 25.9382 7.31411 26.6938 7.3147ZM41.4472 133.719C37.7839 133.716 34.8055 130.733 34.8083 127.064C34.8112 123.396 37.7942 120.428 41.4575 120.431C45.1104 120.434 48.0888 123.406 48.0859 127.075C48.0831 130.743 45.1001 133.722 41.4472 133.719ZM74.1534 110.977L8.77108 110.927L8.84265 18.5514L74.2249 18.6021L74.1534 110.977Z" fill="url(#paint0_linear)"/>
<defs>
<linearGradient id="paint0_linear" x1="41.5448" y1="1.00006" x2="41.446" y2="128.474" gradientUnits="userSpaceOnUse">
<stop offset="0.223958" stop-color="#E54E40"/>
<stop offset="1" stop-color="#7C2AE8"/>
</linearGradient>
</defs>
</svg>
