<svg width="711" height="441" viewBox="0 0 711 441" fill="none" xmlns="http://www.w3.org/2000/svg">
<path d="M745.832 142.452C730.265 162.482 705.313 184.392 679.452 187.868C638.519 193.37 609.485 171.968 578.762 148.13C534.728 113.964 482.548 89.3602 425.973 88.7313C359.764 87.9952 299.426 121.485 234.646 130.303C182.366 137.419 134.743 121.714 97.2016 85.0256C82.48 70.6383 69.1287 54.3076 58.181 36.848C48.195 20.9223 42.1699 3.32451 34.5002 -13.7144C30.3783 -22.8716 26.3547 -32.1282 22.477 -41.3917C21.6703 -43.3188 19.078 -47.8545 19.7182 -50.2347C20.4327 -52.8909 21.6486 -53.0232 24.0848 -53.4405" stroke="#E5E5E5" stroke-width="2" stroke-linecap="round" stroke-linejoin="round"/>
</svg>
