<svg width="331" height="322" viewBox="0 0 331 322" fill="none" xmlns="http://www.w3.org/2000/svg">
<path d="M206.447 8.0437H67.8575C55.9443 8.0437 46.2556 17.7324 46.2556 29.6456V300.398C46.2556 312.309 55.9443 322 67.8575 322H206.447C218.36 322 228.051 312.309 228.051 300.398V29.6456C228.051 17.7324 218.36 8.0437 206.447 8.0437Z" fill="white"/>
<path d="M206.447 8.0437H190.914C202.827 8.0437 212.518 17.7324 212.518 29.6456V300.398C212.518 312.309 202.827 322 190.914 322H206.447C218.36 322 228.051 312.309 228.051 300.398V29.6456C228.051 17.7324 218.36 8.0437 206.447 8.0437Z" fill="#ECEDEF"/>
<path d="M228.051 60.1426V29.6456C228.051 17.7349 218.36 8.0437 206.447 8.0437H67.8575C55.9443 8.0437 46.2556 17.7349 46.2556 29.6456V60.1426H228.051Z" fill="url(#paint0_linear)"/>
<path d="M206.447 8.0437H190.914C202.827 8.0437 212.518 17.7324 212.518 29.6456V60.1426H228.051V29.6456C228.051 17.7324 218.36 8.0437 206.447 8.0437Z" fill="url(#paint1_linear)"/>
<path d="M46.2556 269.901V300.398C46.2556 312.309 55.9469 322 67.8575 322H206.449C218.36 322 228.051 312.309 228.051 300.398V269.901H46.2556Z" fill="url(#paint2_linear)"/>
<path d="M212.518 300.398C212.518 312.309 202.827 322 190.914 322H206.447C217.614 322 226.83 313.483 227.938 302.605C228.014 301.88 228.051 301.144 228.051 300.398V269.899H212.518V300.398Z" fill="url(#paint3_linear)"/>
<path d="M320.149 99.4089H142.208C136.321 99.4089 131.529 104.198 131.529 110.088V219.465C131.529 225.352 136.321 230.144 142.208 230.144H320.149C326.039 230.144 330.828 225.352 330.828 219.465V110.088C330.828 104.198 326.037 99.4089 320.149 99.4089Z" fill="#41ABB5"/>
<path d="M263.692 121.215C251.028 121.215 240.728 131.516 240.728 144.18C240.728 156.841 251.028 167.144 263.692 167.144C276.354 167.144 286.654 156.841 286.654 144.18C286.654 131.516 276.354 121.215 263.692 121.215Z" fill="#F8C03C"/>
<path d="M287.582 121.215C274.921 121.215 264.617 131.516 264.617 144.18C264.617 156.841 274.921 167.144 287.582 167.144C300.246 167.144 310.547 156.841 310.547 144.18C310.547 131.516 300.246 121.215 287.582 121.215Z" fill="#F9E075"/>
<path d="M207.319 122.52H164.878C158.988 122.52 154.199 127.311 154.199 133.198V155.158C154.199 161.045 158.988 165.837 164.878 165.837H207.319C213.208 165.837 218 161.045 218 155.158V133.198C218 127.311 213.208 122.52 207.319 122.52Z" fill="#7C2AE8"/>
<path d="M302.503 175.576H161.656C155.766 175.576 150.978 180.367 150.978 186.255V193.505C150.978 199.392 155.766 204.184 161.656 204.184H302.503C308.393 204.184 313.184 199.392 313.184 193.505V186.255C313.184 180.367 308.393 175.576 302.503 175.576Z" fill="#91BCEE"/>
<path d="M136.384 247.201C133.703 247.201 131.529 245.027 131.529 242.346V87.5839C131.529 84.9035 133.703 82.7295 136.384 82.7295C139.064 82.7295 141.238 84.9035 141.238 87.5839V242.346C141.238 245.027 139.064 247.201 136.384 247.201Z" fill="#D0CFD1"/>
<path d="M48.1273 0C21.9406 0 0.635986 21.3046 0.635986 47.4913C0.635986 73.6756 21.9406 94.9802 48.1273 94.9802C74.3116 94.9802 95.6162 73.6756 95.6162 47.4913C95.6162 21.3046 74.3116 0 48.1273 0Z" fill="#00BF9E"/>
<path d="M48.1272 0C45.593 0 43.1091 0.204052 40.6831 0.586966C63.3455 4.17174 80.7303 23.8364 80.7303 47.4913C80.7303 71.1438 63.3455 90.8084 40.6831 94.3932C43.1091 94.7761 45.593 94.9802 48.1272 94.9802C74.3115 94.9802 95.6161 73.6756 95.6161 47.4913C95.6161 21.3046 74.3115 0 48.1272 0Z" fill="#00A983"/>
<path d="M44.016 62.1881C43.9606 62.1881 43.9026 62.1856 43.8472 62.1831C42.4339 62.1352 41.1139 61.4727 40.2297 60.3718L30.2714 47.9699C28.5936 45.879 28.9262 42.8233 31.0171 41.1455C33.108 39.4677 36.1612 39.8003 37.8415 41.8912L44.2729 49.8996L58.6297 34.3538C60.4485 32.3838 63.5194 32.2629 65.4868 34.0817C67.4568 35.9006 67.5803 38.9715 65.7614 40.9414L47.5806 60.6262C46.6611 61.6238 45.3662 62.1881 44.016 62.1881Z" fill="#FFF4F1"/>
<defs>
<linearGradient id="paint0_linear" x1="188.445" y1="-5.68285" x2="8.16486" y2="33.1882" gradientUnits="userSpaceOnUse">
<stop offset="0.223958" stop-color="#E54E40"/>
<stop offset="1" stop-color="#7C2AE8"/>
</linearGradient>
<linearGradient id="paint1_linear" x1="225.386" y1="97.0585" x2="262.727" y2="69.0147" gradientUnits="userSpaceOnUse">
<stop offset="0.223958" stop-color="#E54E40"/>
<stop offset="1" stop-color="#7C2AE8"/>
</linearGradient>
<linearGradient id="paint2_linear" x1="188.445" y1="256.175" x2="8.16486" y2="295.046" gradientUnits="userSpaceOnUse">
<stop offset="0.223958" stop-color="#E54E40"/>
<stop offset="1" stop-color="#7C2AE8"/>
</linearGradient>
<linearGradient id="paint3_linear" x1="228.288" y1="241.518" x2="198.409" y2="247.876" gradientUnits="userSpaceOnUse">
<stop offset="0.223958" stop-color="#E54E40"/>
<stop offset="1" stop-color="#7C2AE8"/>
</linearGradient>
</defs>
</svg>
