<svg width="288" height="262" viewBox="0 0 288 262" fill="none" xmlns="http://www.w3.org/2000/svg">
<path d="M106.033 186.19H181.783C184.33 186.19 186.332 188.252 186.332 190.738V236.528C186.332 239.075 184.27 241.076 181.783 241.076H106.033C103.486 241.076 101.485 239.014 101.485 236.528V190.738C101.485 188.252 103.547 186.19 106.033 186.19Z" fill="#D0CFD1"/>
<path d="M106.034 186.19H120.043C117.496 186.19 115.495 188.252 115.495 190.738V236.528C115.495 239.075 117.557 241.076 120.043 241.076H106.034C103.486 241.076 101.485 239.014 101.485 236.528V190.738C101.485 188.252 103.547 186.19 106.034 186.19Z" fill="#838383"/>
<path d="M16.5166 0H271.36C280.275 0 287.553 7.27778 287.553 16.2537V196.985C287.553 205.9 280.275 213.178 271.36 213.178H16.5166C7.60132 213.178 0.323547 205.9 0.323547 196.985V16.2537C0.262878 7.27778 7.54068 0 16.5166 0Z" fill="white"/>
<path d="M16.5169 0H30.5266C21.5507 0 14.3335 7.27778 14.3335 16.1931V196.925C14.3335 205.84 21.6113 213.118 30.5266 213.118H16.5169C7.6016 213.118 0.323818 205.84 0.323818 196.925V16.1931C0.26317 7.27778 7.54096 0 16.5169 0Z" fill="#ECEDEF"/>
<path d="M0.262909 39.4213V16.2537C0.262909 7.3384 7.54068 0.060618 16.456 0.060618H271.36C280.275 -3.01413e-05 287.553 7.27775 287.553 16.2537V39.4213H0.262909Z" fill="url(#paint0_linear)"/>
<path d="M16.5169 0H30.5266C21.5507 0 14.3335 7.27778 14.3335 16.1931V39.4213H0.323818V16.2537C0.26317 7.27778 7.54096 0 16.5169 0Z" fill="url(#paint1_linear)"/>
<path d="M287.553 173.818V196.985C287.553 205.9 280.275 213.178 271.36 213.178H16.5167C7.60138 213.178 0.323578 205.9 0.323578 196.985V173.818H287.553Z" fill="url(#paint2_linear)"/>
<path d="M14.2728 196.985C14.2728 205.9 21.5505 213.178 30.4658 213.178H16.4561C7.54081 213.178 0.263027 205.9 0.263027 196.985V173.818H14.2728V196.985Z" fill="url(#paint3_linear)"/>
<path d="M78.3779 236.528C81.289 233.495 85.595 231.979 91.0533 231.979H196.763C202.343 231.979 206.709 233.556 209.62 236.588C214.351 241.501 214.108 248.536 213.926 253.752C213.866 255.086 213.805 256.299 213.866 257.148C213.926 258.422 213.502 259.635 212.653 260.544C211.804 261.454 210.591 262 209.317 262H78.4992C77.2256 262 76.0126 261.454 75.1635 260.544C74.3144 259.635 73.8293 258.361 73.9506 257.148C74.0112 256.299 73.9506 255.086 73.9506 253.813C73.7686 248.597 73.5867 241.44 78.3779 236.528Z" fill="#9C9B9D"/>
<path d="M78.3778 236.528C81.2889 233.495 85.5949 231.979 91.0533 231.979H105.063C99.6047 231.979 95.3593 233.495 92.3875 236.528C87.5963 241.44 87.7783 248.597 87.8996 253.813C87.9602 255.086 87.9602 256.299 87.8996 257.148C87.8389 258.422 88.2634 259.635 89.1125 260.544C89.9616 261.454 91.1746 262 92.4482 262H78.4385C77.1648 262 75.9519 261.454 75.1028 260.544C74.2537 259.635 73.7685 258.361 73.8898 257.148C73.9505 256.299 73.8898 255.086 73.8898 253.813C73.7685 248.597 73.5866 241.44 78.3778 236.528Z" fill="#838383"/>
<path d="M209.863 128.089H228.118C232.485 128.089 236.063 124.511 236.063 120.144V68.1685C236.063 63.8018 232.485 60.2236 228.118 60.2236H209.863C205.496 60.2236 201.918 63.8018 201.918 68.1685V120.144C201.918 124.511 205.496 128.089 209.863 128.089ZM228.118 67.4407C228.482 67.4407 228.846 67.7439 228.846 68.1685V120.144C228.846 120.508 228.543 120.872 228.118 120.872H209.863C209.499 120.872 209.135 120.568 209.135 120.144V68.1685C209.135 67.8046 209.438 67.4407 209.863 67.4407H228.118Z" fill="#D0CFD1"/>
<path d="M191.729 89.2134C191.79 87.2727 193.367 85.6958 195.307 85.6958H243.401C245.342 85.6958 246.98 87.2727 246.98 89.2134L248.799 149.255C248.799 150.225 248.435 151.196 247.768 151.863C247.101 152.591 246.131 152.955 245.16 152.955H193.549C192.578 152.955 191.608 152.53 190.941 151.863C190.274 151.135 189.91 150.225 189.91 149.255L191.729 89.2134Z" fill="#F45A3C"/>
<path d="M191.729 89.2134C191.79 87.2727 193.367 85.6958 195.307 85.6958H206.406C204.465 85.6958 202.828 87.2727 202.767 89.2134L200.948 149.255C200.948 150.225 201.312 151.196 201.979 151.863C202.646 152.591 203.616 152.955 204.587 152.955H193.549C192.578 152.955 191.608 152.53 190.941 151.863C190.274 151.135 189.91 150.225 189.91 149.255L191.729 89.2134Z" fill="#E24A2A"/>
<path d="M26.463 119.477H152.126C154.673 119.477 156.675 121.539 156.675 124.025V147.8C156.675 150.347 154.613 152.348 152.126 152.348H26.463C23.9158 152.348 21.9144 150.286 21.9144 147.8V124.025C21.9144 121.539 23.9764 119.477 26.463 119.477Z" fill="#039EB0"/>
<path d="M24.0971 62.7708H153.52C156.067 62.7708 158.069 60.7088 158.069 58.2222C158.069 55.7357 156.007 53.6736 153.52 53.6736H24.0971C21.5499 53.6736 19.5485 55.7357 19.5485 58.2222C19.5485 60.7088 21.5499 62.7708 24.0971 62.7708Z" fill="#D0CFD1"/>
<path d="M24.0976 84.4828H153.521C156.068 84.4828 158.069 82.4208 158.069 79.9342C158.069 77.4477 156.007 75.3856 153.521 75.3856H24.0976C21.5504 75.3856 19.549 77.4477 19.549 79.9342C19.549 82.4208 21.5504 84.4828 24.0976 84.4828Z" fill="#D0CFD1"/>
<path d="M24.0976 106.134H153.521C156.068 106.134 158.069 104.072 158.069 101.586C158.069 99.0991 156.007 97.037 153.521 97.037H24.0976C21.5504 97.037 19.549 99.0991 19.549 101.586C19.549 104.072 21.5504 106.134 24.0976 106.134Z" fill="#D0CFD1"/>
<defs>
<linearGradient id="paint0_linear" x1="62.8518" y1="-10.3102" x2="310.6" y2="101.424" gradientUnits="userSpaceOnUse">
<stop offset="0.223958" stop-color="#E54E40"/>
<stop offset="1" stop-color="#7C2AE8"/>
</linearGradient>
<linearGradient id="paint1_linear" x1="28.2825" y1="53.3704" x2="0.139286" y2="51.1874" gradientUnits="userSpaceOnUse">
<stop offset="0.223958" stop-color="#E54E40"/>
<stop offset="1" stop-color="#7C2AE8"/>
</linearGradient>
<linearGradient id="paint2_linear" x1="28.5856" y1="162.234" x2="293.572" y2="258.055" gradientUnits="userSpaceOnUse">
<stop offset="0.223958" stop-color="#E54E40"/>
<stop offset="1" stop-color="#7C2AE8"/>
</linearGradient>
<linearGradient id="paint3_linear" x1="28.2218" y1="227.106" x2="0.0793913" y2="224.92" gradientUnits="userSpaceOnUse">
<stop offset="0.223958" stop-color="#E54E40"/>
<stop offset="1" stop-color="#7C2AE8"/>
</linearGradient>
</defs>
</svg>
