<svg width="173" height="21" viewBox="0 0 173 21" fill="none" xmlns="http://www.w3.org/2000/svg">
<path d="M10 18.9999L1 10.2212L10 1.99991" stroke="#7C2AE8" stroke-linecap="round"/>
<path d="M25 9.99991H1" stroke="#7C2AE8" stroke-linecap="round"/>
<path d="M45.3984 11.6737H41.6807V16.9999H40.5908V4.20303H44.748C46.1133 4.20303 47.1797 4.53409 47.9473 5.1962C48.7148 5.85831 49.0986 6.78409 49.0986 7.97354C49.0986 8.79385 48.8584 9.51749 48.3779 10.1444C47.8975 10.7714 47.2529 11.205 46.4443 11.4452L49.6436 16.8857V16.9999H48.4922L45.3984 11.6737ZM41.6807 10.7509H44.9941C45.9023 10.7509 46.6318 10.4931 47.1826 9.97745C47.7334 9.46182 48.0088 8.79385 48.0088 7.97354C48.0088 7.0712 47.7217 6.371 47.1475 5.87296C46.5732 5.37491 45.7676 5.12589 44.7305 5.12589H41.6807V10.7509ZM65.4094 10.8651H59.424V16.0858H66.3059V16.9999H58.343V4.20303H66.2619V5.12589H59.424V9.95108H65.4094V10.8651ZM84.1283 15.4794C83.7533 16.0126 83.1645 16.4286 82.3617 16.7274C81.5648 17.0263 80.6713 17.1757 79.6811 17.1757C78.6791 17.1757 77.7885 16.9355 77.0092 16.455C76.2299 15.9745 75.6264 15.2948 75.1986 14.4159C74.7709 13.537 74.5541 12.5292 74.5482 11.3925V9.7753C74.5482 7.99991 74.9965 6.59952 75.893 5.57413C76.7895 4.54288 77.9936 4.02725 79.5053 4.02725C80.8236 4.02725 81.8842 4.36417 82.6869 5.03799C83.4896 5.70596 83.9672 6.62881 84.1195 7.80655H83.0385C82.8803 6.86905 82.4965 6.16006 81.8871 5.6796C81.2836 5.19327 80.4926 4.9501 79.5141 4.9501C78.3187 4.9501 77.3725 5.37491 76.6752 6.22452C75.9779 7.07413 75.6293 8.27237 75.6293 9.81924V11.331C75.6293 12.3036 75.7934 13.1649 76.1215 13.9149C76.4555 14.6591 76.9301 15.2362 77.5453 15.6464C78.1664 16.0565 78.8783 16.2616 79.6811 16.2616C80.6127 16.2616 81.4125 16.1151 82.0805 15.8222C82.5141 15.6288 82.8363 15.4032 83.0473 15.1454V11.8407H79.6107V10.9267H84.1283V15.4794ZM98.277 11.6737H94.5592V16.9999H93.4693V4.20303H97.6266C98.9918 4.20303 100.058 4.53409 100.826 5.1962C101.593 5.85831 101.977 6.78409 101.977 7.97354C101.977 8.79385 101.737 9.51749 101.256 10.1444C100.776 10.7714 100.131 11.205 99.3229 11.4452L102.522 16.8857V16.9999H101.371L98.277 11.6737ZM94.5592 10.7509H97.8727C98.7809 10.7509 99.5104 10.4931 100.061 9.97745C100.612 9.46182 100.887 8.79385 100.887 7.97354C100.887 7.0712 100.6 6.371 100.026 5.87296C99.4518 5.37491 98.6461 5.12589 97.609 5.12589H94.5592V10.7509ZM118.288 10.8651H112.303V16.0858H119.184V16.9999H111.221V4.20303H119.14V5.12589H112.303V9.95108H118.288V10.8651ZM135.012 13.8534C135.012 13.1444 134.763 12.5849 134.265 12.1747C133.767 11.7587 132.855 11.3661 131.531 10.997C130.207 10.622 129.24 10.2148 128.631 9.7753C127.764 9.15421 127.33 8.33975 127.33 7.33194C127.33 6.35342 127.731 5.55948 128.534 4.9501C129.343 4.33487 130.374 4.02725 131.628 4.02725C132.478 4.02725 133.236 4.19131 133.904 4.51944C134.578 4.84756 135.1 5.3046 135.469 5.89053C135.838 6.47647 136.022 7.12979 136.022 7.85049H134.933C134.933 6.97745 134.634 6.27725 134.036 5.74991C133.438 5.21671 132.636 4.9501 131.628 4.9501C130.649 4.9501 129.87 5.16983 129.29 5.60928C128.71 6.04288 128.42 6.61124 128.42 7.31436C128.42 7.96475 128.681 8.49503 129.202 8.90518C129.724 9.31534 130.559 9.67862 131.707 9.99503C132.855 10.3056 133.726 10.6308 134.317 10.9706C134.909 11.3046 135.354 11.706 135.653 12.1747C135.952 12.6435 136.102 13.1972 136.102 13.8358C136.102 14.8437 135.697 15.6523 134.889 16.2616C134.086 16.871 133.025 17.1757 131.707 17.1757C130.805 17.1757 129.976 17.0146 129.22 16.6923C128.47 16.37 127.898 15.9189 127.506 15.3388C127.119 14.7587 126.926 14.0937 126.926 13.3437H128.007C128.007 14.246 128.344 14.9579 129.018 15.4794C129.691 16.0009 130.588 16.2616 131.707 16.2616C132.703 16.2616 133.503 16.0419 134.106 15.6024C134.71 15.163 135.012 14.58 135.012 13.8534ZM151.648 13.414H145.838L144.52 16.9999H143.386L148.229 4.20303H149.257L154.1 16.9999H152.975L151.648 13.414ZM146.172 12.4911H151.305L148.738 5.52139L146.172 12.4911ZM167.071 11.6737H163.353V16.9999H162.263V4.20303H166.42C167.786 4.20303 168.852 4.53409 169.62 5.1962C170.387 5.85831 170.771 6.78409 170.771 7.97354C170.771 8.79385 170.531 9.51749 170.05 10.1444C169.57 10.7714 168.925 11.205 168.117 11.4452L171.316 16.8857V16.9999H170.164L167.071 11.6737ZM163.353 10.7509H166.666C167.575 10.7509 168.304 10.4931 168.855 9.97745C169.406 9.46182 169.681 8.79385 169.681 7.97354C169.681 7.0712 169.394 6.371 168.82 5.87296C168.246 5.37491 167.44 5.12589 166.403 5.12589H163.353V10.7509Z" fill="#7C2AE8"/>
</svg>
