<svg width="455" height="614" viewBox="0 0 455 614" fill="none" xmlns="http://www.w3.org/2000/svg">
<path d="M392.993 65.5217C415.564 69.6864 441.876 75.161 457.286 89.0494C472.908 91.8849 485.469 96.8224 500.289 101.583C525.53 109.69 568.839 122.718 574.516 146.853C581.407 176.153 542.183 196.886 520.739 215.439C510.281 224.487 496.123 231.387 487.492 241.859C476.873 254.743 489.342 276.419 492.744 289.243C501.552 322.437 512.611 356.337 513.551 391.163C514.429 423.656 492.633 456.237 472.582 485.031C445.726 523.596 400.869 545.693 350.101 551.64C272.827 560.693 200.936 546.039 142.992 509.254C101.468 482.893 79.902 445.903 69.2338 402.915C58.2163 358.52 51.3686 312.669 61.5844 265.782C78.4277 188.479 130.839 113.364 225.746 82.9549C280.435 65.4319 338.526 55.4717 392.993 65.5217Z" fill="#E2E4EC"/>
<path d="M294.511 561.396L527 605V25L354.455 66.6395C272.221 86.4847 229.645 177.502 267.119 253.344C278.866 277.119 271.147 305.919 249.084 320.632L235.61 329.617C209.614 346.952 194 376.132 194 407.378V440.281C194 499.578 236.231 550.466 294.511 561.396Z" stroke="#7C2AE8"/>
</svg>
