<svg width="244" height="489" viewBox="0 0 244 489" fill="none" xmlns="http://www.w3.org/2000/svg">
<path d="M111.014 27.6432L260 0V365.783L149.13 339.313C97.2896 326.937 70.4889 269.505 94.3034 221.824C101.789 206.837 96.8996 188.621 82.916 179.396L74.1918 173.64C57.6623 162.736 47.7155 144.257 47.7155 124.455V103.766C47.7155 66.4544 74.3279 34.45 111.014 27.6432Z" fill="#E2E4EC"/>
<path d="M84.6771 451.978L282 488V15L134.581 49.6281C67.5869 65.3649 33.0307 139.695 64.1807 201.059C74.0111 220.425 67.649 244.086 49.4324 255.91L37.6973 263.527C16.0584 277.573 3 301.617 3 327.415V354.04C3 402.127 37.3716 443.342 84.6771 451.978Z" stroke="#7C2AE8"/>
</svg>
