<svg width="310" height="611" viewBox="0 0 310 611" fill="none" xmlns="http://www.w3.org/2000/svg">
<path d="M214.455 101.971L0 61V611L158.404 572.061C236.441 552.877 276.941 466.641 241.869 394.338C230.926 371.778 238.191 344.605 258.932 330.516L271.142 322.222C295.448 305.712 310 278.235 310 248.851V217.497C310 161.05 269.899 112.563 214.455 101.971Z" fill="#E2E4EC"/>
<path d="M206.489 537.396L-26 581V1L146.545 42.6395C228.779 62.4847 271.355 153.502 233.881 229.344C222.134 253.119 229.853 281.919 251.916 296.632L265.39 305.617C291.386 322.952 307 352.132 307 383.378V416.281C307 475.578 264.769 526.466 206.489 537.396Z" stroke="#7C2AE8"/>
</svg>
