<svg width="321" height="582" viewBox="0 0 321 582" fill="none" xmlns="http://www.w3.org/2000/svg">
<path d="M172.69 408.9C169.49 577.3 -56.9762 591.4 -169.81 577.4C-185.643 516.067 -198.61 337.6 -123.81 114.4C-64.5379 -62.4637 106.228 15.4323 232.705 114.688C268.207 142.549 248.802 213.398 220.812 248.797C194.494 282.08 174.132 333.051 172.69 408.9Z" fill="#E2E4EC"/>
<path d="M109.489 537.396L-123 581V1L49.5446 42.6395C131.779 62.4847 174.355 153.502 136.881 229.344C125.134 253.119 132.853 281.919 154.916 296.632L168.39 305.617C194.386 322.952 210 352.132 210 383.378V416.281C210 475.578 167.769 526.466 109.489 537.396Z" stroke="#7C2AE8"/>
</svg>
