<svg width="177" height="21" viewBox="0 0 177 21" fill="none" xmlns="http://www.w3.org/2000/svg">
<path d="M8.85938 13.8534C8.85938 13.1444 8.61035 12.5849 8.1123 12.1747C7.61426 11.7587 6.70312 11.3661 5.37891 10.997C4.05469 10.622 3.08789 10.2148 2.47852 9.7753C1.61133 9.15421 1.17773 8.33975 1.17773 7.33194C1.17773 6.35342 1.5791 5.55948 2.38184 4.9501C3.19043 4.33487 4.22168 4.02725 5.47559 4.02725C6.3252 4.02725 7.08398 4.19131 7.75195 4.51944C8.42578 4.84756 8.94727 5.3046 9.31641 5.89053C9.68555 6.47647 9.87012 7.12979 9.87012 7.85049H8.78027C8.78027 6.97745 8.48145 6.27725 7.88379 5.74991C7.28613 5.21671 6.4834 4.9501 5.47559 4.9501C4.49707 4.9501 3.71777 5.16983 3.1377 5.60928C2.55762 6.04288 2.26758 6.61124 2.26758 7.31436C2.26758 7.96475 2.52832 8.49503 3.0498 8.90518C3.57129 9.31534 4.40625 9.67862 5.55469 9.99503C6.70312 10.3056 7.57324 10.6308 8.16504 10.9706C8.75684 11.3046 9.20215 11.706 9.50098 12.1747C9.7998 12.6435 9.94922 13.1972 9.94922 13.8358C9.94922 14.8437 9.54492 15.6523 8.73633 16.2616C7.93359 16.871 6.87305 17.1757 5.55469 17.1757C4.65234 17.1757 3.82324 17.0146 3.06738 16.6923C2.31738 16.37 1.74609 15.9189 1.35352 15.3388C0.966797 14.7587 0.773438 14.0937 0.773438 13.3437H1.85449C1.85449 14.246 2.19141 14.9579 2.86523 15.4794C3.53906 16.0009 4.43555 16.2616 5.55469 16.2616C6.55078 16.2616 7.35059 16.0419 7.9541 15.6024C8.55762 15.163 8.85938 14.58 8.85938 13.8534ZM19.9055 16.9999H18.8244V4.20303H19.9055V16.9999ZM38.9232 15.4794C38.5482 16.0126 37.9594 16.4286 37.1566 16.7274C36.3598 17.0263 35.4662 17.1757 34.476 17.1757C33.474 17.1757 32.5834 16.9355 31.8041 16.455C31.0248 15.9745 30.4213 15.2948 29.9936 14.4159C29.5658 13.537 29.349 12.5292 29.3432 11.3925V9.7753C29.3432 7.99991 29.7914 6.59952 30.6879 5.57413C31.5844 4.54288 32.7885 4.02725 34.3002 4.02725C35.6186 4.02725 36.6791 4.36417 37.4818 5.03799C38.2846 5.70596 38.7621 6.62881 38.9145 7.80655H37.8334C37.6752 6.86905 37.2914 6.16006 36.682 5.6796C36.0785 5.19327 35.2875 4.9501 34.309 4.9501C33.1137 4.9501 32.1674 5.37491 31.4701 6.22452C30.7729 7.07413 30.4242 8.27237 30.4242 9.81924V11.331C30.4242 12.3036 30.5883 13.1649 30.9164 13.9149C31.2504 14.6591 31.725 15.2362 32.3402 15.6464C32.9613 16.0565 33.6732 16.2616 34.476 16.2616C35.4076 16.2616 36.2074 16.1151 36.8754 15.8222C37.309 15.6288 37.6313 15.4032 37.8422 15.1454V11.8407H34.4057V10.9267H38.9232V15.4794ZM57.1061 4.20303V12.9394C57.1002 13.8007 56.9098 14.5507 56.5348 15.1894C56.1598 15.828 55.6295 16.3202 54.9439 16.6659C54.2643 17.0058 53.482 17.1757 52.5973 17.1757C51.2496 17.1757 50.1686 16.8095 49.3541 16.0771C48.5455 15.3388 48.1266 14.3192 48.0973 13.0185V4.20303H49.1695V12.8603C49.1695 13.9384 49.4771 14.7763 50.0924 15.3739C50.7076 15.9657 51.5426 16.2616 52.5973 16.2616C53.652 16.2616 54.484 15.9628 55.0934 15.3651C55.7086 14.7675 56.0162 13.9355 56.0162 12.869V4.20303H57.1061ZM67.7391 16.9999H66.658V4.20303H67.7391V16.9999ZM84.5859 10.8651H78.6006V16.0858H85.4824V16.9999H77.5195V4.20303H85.4385V5.12589H78.6006V9.95108H84.5859V10.8651ZM103.595 16.9999H102.514L95.1574 6.04874V16.9999H94.0676V4.20303H95.1574L102.523 15.163V4.20303H103.595V16.9999ZM121.567 5.12589H117.181V16.9999H116.1V5.12589H111.723V4.20303H121.567V5.12589ZM137.007 10.8651H131.022V16.0858H137.904V16.9999H129.941V4.20303H137.86V5.12589H131.022V9.95108H137.007V10.8651Z" fill="#41ABB5"/>
<path d="M167 18.9999L176 10.2212L167 1.99991" stroke="#41ABB5" stroke-linecap="round"/>
<path d="M152 9.99991H176" stroke="#41ABB5" stroke-linecap="round"/>
</svg>
