<svg width="246" height="314" viewBox="0 0 246 314" fill="none" xmlns="http://www.w3.org/2000/svg">
<path d="M46.2242 0H184.814C196.727 0 206.416 9.68872 206.416 21.6019V292.354C206.416 304.265 196.727 313.956 184.814 313.956H46.2242C34.311 313.956 24.6198 304.265 24.6198 292.354V21.6019C24.6198 9.68872 34.311 0 46.2242 0Z" fill="white"/>
<path d="M24.6198 52.0989V21.6019C24.6198 9.69124 34.311 0 46.2242 0H184.814C196.727 0 206.416 9.69124 206.416 21.6019V52.0989H24.6198Z" fill="url(#paint0_linear)"/>
<path d="M46.2241 0H61.7573C49.8442 0 40.1529 9.68872 40.1529 21.6019V52.0989H24.6198V21.6019C24.6198 9.68872 34.311 0 46.2241 0Z" fill="url(#paint1_linear)"/>
<path d="M206.416 261.857V292.354C206.416 304.265 196.724 313.956 184.814 313.956H46.2217C34.311 313.956 24.6198 304.265 24.6198 292.354V261.857H206.416Z" fill="url(#paint2_linear)"/>
<path d="M40.1529 292.355C40.1529 304.265 49.8442 313.956 61.7573 313.956H46.2241C35.0567 313.956 25.8415 305.439 24.7331 294.561C24.6575 293.836 24.6198 293.1 24.6198 292.355V261.855H40.1529V292.355Z" fill="url(#paint3_linear)"/>
<path d="M69.4028 102.956C56.6285 102.956 46.2703 94.9522 46.2703 85.0792V73.025H92.5378V85.0792C92.5378 94.9522 82.1822 102.956 69.4028 102.956Z" fill="#048B9B"/>
<path d="M115.673 102.956C102.896 102.956 92.5378 94.9522 92.5378 85.0792V73.025H138.808V85.0792C138.808 94.9522 128.45 102.956 115.673 102.956Z" fill="#039EB0"/>
<path d="M161.943 102.956C149.166 102.956 138.808 94.9522 138.808 85.0792V73.025H185.075V85.0792C185.078 94.9522 174.72 102.956 161.943 102.956Z" fill="#048B9B"/>
<path d="M185.078 73.025V85.0792C185.078 94.9522 195.434 102.956 208.211 102.956C220.987 102.956 231.346 94.9522 231.346 85.0792V75.7304L228.474 73.025H185.078Z" fill="#039EB0"/>
<path d="M2.82003 73.025V73.075L0 75.7304V85.0792C0 94.9522 10.3582 102.956 23.1351 102.956C35.912 102.956 46.2702 94.9522 46.2702 85.0792V73.025H2.82003Z" fill="#039EB0"/>
<path d="M206.108 51.9563H25.2378L0 75.7304H231.346L206.108 51.9563Z" fill="#41ABB5"/>
<path d="M186.63 267.321H175.272V278.679H186.63V267.321Z" fill="#2BC3D4"/>
<path d="M219.949 156.956H159.62C145.784 156.956 134.569 168.231 134.569 182.141V210.081C134.569 211.319 133.715 212.387 132.514 212.651C126.559 213.961 109.559 216.43 107.105 202.649C106.98 201.946 105.987 201.925 105.836 202.624C103.996 211.13 102.535 232.192 132.182 235.03C133.531 235.16 134.569 236.285 134.569 237.649V259.772C134.569 273.68 145.784 284.956 159.62 284.956H219.949C233.785 284.956 245 273.681 245 259.772V182.141C245 168.232 233.785 156.956 219.949 156.956Z" fill="#FFD659"/>
<path d="M220.263 156.956H199.984C213.879 156.956 225.143 168.205 225.143 182.082V259.53C225.143 273.406 213.879 284.655 199.984 284.655H220.263C234.158 284.655 245.422 273.407 245.422 259.53V182.082C245.422 168.206 234.158 156.956 220.263 156.956Z" fill="#FFBD54"/>
<path d="M219.735 209.641H158.896C156.18 209.641 153.978 211.842 153.978 214.56C153.978 217.277 156.18 219.479 158.896 219.479H219.735C222.451 219.479 224.654 217.277 224.654 214.56C224.654 211.842 222.451 209.641 219.735 209.641Z" fill="#50536E"/>
<path d="M185.257 229.738H158.896C156.18 229.738 153.978 231.939 153.978 234.657C153.978 237.374 156.18 239.576 158.896 239.576H185.257C187.973 239.576 190.176 237.374 190.176 234.657C190.176 231.939 187.973 229.738 185.257 229.738Z" fill="#50536E"/>
<path d="M158.896 199.037H219.735C222.451 199.037 224.654 196.835 224.654 194.118C224.654 191.401 222.451 189.199 219.735 189.199H158.896C156.18 189.199 153.978 191.401 153.978 194.118C153.978 196.835 156.18 199.037 158.896 199.037Z" fill="#50536E"/>
<path d="M125.538 161.225C125.538 164.772 121.827 167.785 120.952 171.056C120.048 174.441 121.729 178.901 120.015 181.864C118.275 184.871 113.556 185.633 111.116 188.073C108.677 190.513 107.914 195.232 104.908 196.971C101.944 198.686 97.4847 197.004 94.0998 197.909C90.8284 198.783 87.8162 202.495 84.2692 202.495C80.7222 202.495 77.71 198.783 74.4386 197.909C71.0537 197.004 66.5941 198.686 63.6304 196.971C60.624 195.232 59.8614 190.513 57.4217 188.073C54.9821 185.633 50.2627 184.87 48.5236 181.864C46.809 178.9 48.4909 174.441 47.586 171.056C46.7117 167.785 43 164.772 43 161.225C43 157.678 46.7117 154.666 47.586 151.395C48.4909 148.01 46.809 143.55 48.5236 140.587C50.2631 137.58 54.9821 136.818 57.4221 134.378C59.8618 131.938 60.6244 127.219 63.6307 125.48C66.5945 123.765 71.0537 125.447 74.4386 124.542C77.71 123.668 80.7222 119.956 84.2692 119.956C87.8162 119.956 90.8284 123.668 94.0998 124.542C97.4847 125.447 101.944 123.765 104.908 125.48C107.914 127.219 108.677 131.938 111.117 134.378C113.556 136.818 118.276 137.581 120.015 140.587C121.729 143.551 120.048 148.01 120.952 151.395C121.827 154.666 125.538 157.678 125.538 161.225Z" fill="#FF2C5C"/>
<path d="M71.7747 154.032C75.1204 154.032 77.8327 151.319 77.8327 147.974C77.8327 144.628 75.1204 141.916 71.7747 141.916C68.429 141.916 65.7168 144.628 65.7168 147.974C65.7168 151.319 68.429 154.032 71.7747 154.032Z" fill="#B5FCFF"/>
<path d="M97.5206 179.399C100.866 179.399 103.579 176.687 103.579 173.341C103.579 169.995 100.866 167.283 97.5206 167.283C94.1749 167.283 91.4626 169.995 91.4626 173.341C91.4626 176.687 94.1749 179.399 97.5206 179.399Z" fill="#B5FCFF"/>
<path d="M101.003 144.302C99.927 143.225 98.1816 143.225 97.1055 144.302L68.2925 173.115C67.216 174.191 67.216 175.936 68.2925 177.013C68.8305 177.551 69.5362 177.82 70.2415 177.82C70.9468 177.82 71.6524 177.551 72.1905 177.013L101.003 148.2C102.08 147.123 102.08 145.378 101.003 144.302Z" fill="#B5FCFF"/>
<defs>
<linearGradient id="paint0_linear" x1="64.2257" y1="-13.7266" x2="244.506" y2="25.1445" gradientUnits="userSpaceOnUse">
<stop offset="0.223958" stop-color="#E54E40"/>
<stop offset="1" stop-color="#7C2AE8"/>
</linearGradient>
<linearGradient id="paint1_linear" x1="27.285" y1="89.0148" x2="-10.0558" y2="60.971" gradientUnits="userSpaceOnUse">
<stop offset="0.223958" stop-color="#E54E40"/>
<stop offset="1" stop-color="#7C2AE8"/>
</linearGradient>
<linearGradient id="paint2_linear" x1="64.2257" y1="248.131" x2="244.506" y2="287.002" gradientUnits="userSpaceOnUse">
<stop offset="0.223958" stop-color="#E54E40"/>
<stop offset="1" stop-color="#7C2AE8"/>
</linearGradient>
<linearGradient id="paint3_linear" x1="24.383" y1="233.474" x2="54.2621" y2="239.832" gradientUnits="userSpaceOnUse">
<stop offset="0.223958" stop-color="#E54E40"/>
<stop offset="1" stop-color="#7C2AE8"/>
</linearGradient>
</defs>
</svg>
